<?xml version="1.0" encoding="utf-8"?>
<!-- Generator: Adobe Illustrator 23.0.3, SVG Export Plug-In . SVG Version: 6.00 Build 0)  -->
<svg version="1.1" id="Layer_1" xmlns="http://www.w3.org/2000/svg" xmlns:xlink="http://www.w3.org/1999/xlink" x="0px" y="0px"
	 viewBox="0 0 205.39 203.75" style="enable-background:new 0 0 205.39 203.75;" xml:space="preserve">
<g>
	<path class="st0" d="M114.33,158.13c-1.6,0-3.17-0.79-4.1-2.24c-5.33-8.35-16.36-13.05-29.15-18.49
		c-11.23-4.79-23.96-10.21-35.38-19.31c-25.66-20.45-10.28-89-8.44-96.75c0.5-2.13,2.37-3.66,4.55-3.73
		c2.23-0.14,4.15,1.32,4.8,3.41c4.71,15.15,49.59,54.63,68.07,64.22c22.07,11.46,20.31,39.46,20.22,40.64
		c-0.19,2.67-2.52,4.71-5.19,4.49c-2.67-0.19-4.68-2.51-4.49-5.18c0.02-0.29,1.32-22.85-15.01-31.33
		c-15.71-8.16-50.65-37.14-65.99-57.83c-4.09,23.94-7.14,62.76,7.54,74.46c10.38,8.27,21.95,13.2,33.13,17.96
		c13.67,5.82,26.59,11.32,33.53,22.2c1.44,2.26,0.78,5.26-1.48,6.7C116.13,157.89,115.22,158.13,114.33,158.13z"/>
	<path class="st0" d="M137.26,100.27c-1.95,0-3.79-1.19-4.53-3.12c-1.81-4.73-4.7-8.56-8.59-11.4
		c-14.28-10.43-44.4-44.31-56.46-67.08c-2.2,6.62-4.82,15.37-6.86,24.67c-0.58,2.62-3.17,4.27-5.78,3.71
		c-2.62-0.57-4.28-3.16-3.71-5.78c4.44-20.3,11.37-37.51,11.66-38.23c0.82-2.03,2.9-3.26,5.07-3c2.17,0.26,3.91,1.93,4.23,4.1
		c2.37,15.69,40.76,61.5,57.57,73.78c5.43,3.96,9.44,9.27,11.93,15.77c0.96,2.5-0.29,5.31-2.8,6.27
		C138.43,100.17,137.84,100.27,137.26,100.27z"/>
	<path class="st0" d="M126.72,203.75c-24.76,0-48.78-10.01-55.5-13.05c-9.56,2.89-46.96,13.48-61.54,7.13
		c-4.11-1.79-7.05-5.17-8.53-9.77c-4.64-14.52,6.18-37.09,6.3-37.29c2.11-3.52,4.96-3.34,27.12-1.99
		c10.95,0.67,24.59,1.51,36.26,1.51c9.53,0,20.26-3.71,31.02-10.74c2.25-1.47,5.25-0.83,6.72,1.41c1.47,2.25,0.83,5.26-1.41,6.72
		c-12.53,8.17-24.75,12.32-36.33,12.32c-11.97,0-25.77-0.84-36.85-1.52c-7.28-0.45-15.36-0.95-19.04-0.88
		c-2.34,5.59-7.13,20.1-4.47,27.75c0.83,2.36,2.15,3.17,3.08,3.58c9.42,4.11,39.7-2.76,56.56-8.05c1.18-0.37,2.46-0.27,3.58,0.26
		c0.53,0.26,54.05,25.8,84.27,4.17c29.27-20.96,22.01-57.12,19.63-69.01l-0.26-1.31c-1.06-5.38-2.76-11.76-4.41-17.94
		c-1.07-4.01-2.09-7.81-2.88-11.17c-0.49-2.09,0.44-4.25,2.3-5.32c4.77-2.75,6.46-6.38,6.46-13.87c0-0.15-0.02-0.29-0.02-0.43
		l-0.03-0.44c-0.09-1.69,0.71-3.3,2.1-4.26l0.26-0.17c-1.77-0.05-3.39-1.07-4.2-2.69c-3.07-6.18-9.25-10.01-16.11-10.01
		c-9.93,0-18.01,8.08-18.01,18.01c0,0.79,0.07,1.64,0.23,2.67c0.03,0.18,0.04,0.35,0.05,0.53c0.15,4.01,1.21,39.55-9.21,53.31
		c-1.62,2.14-4.66,2.56-6.8,0.94c-2.14-1.62-2.56-4.66-0.94-6.8c7-9.24,7.62-36.67,7.26-46.82c-0.2-1.4-0.29-2.62-0.29-3.83
		c0-15.29,12.44-27.72,27.72-27.72c9.38,0,17.92,4.64,23.03,12.32l16.06-2.15c2.22-0.32,4.37,0.97,5.18,3.07
		c0.81,2.1,0.07,4.48-1.78,5.75L188.51,68.1c-0.15,6.52-1.52,13.52-8.21,18.79c0.61,2.39,1.3,4.98,2.02,7.66
		c1.69,6.33,3.44,12.88,4.56,18.58l0.25,1.26c2.69,13.41,10.88,54.21-23.49,78.82C152.69,201.04,139.61,203.75,126.72,203.75z"/>
	<path class="st0" d="M166.77,59.8c0,2.26-1.83,4.09-4.09,4.09c-2.25,0-4.08-1.82-4.08-4.09c0-2.25,1.83-4.08,4.08-4.08
		C164.94,55.72,166.77,57.55,166.77,59.8z"/>
</g>
</svg>
