<svg version="1.1" id="dove" xmlns="http://www.w3.org/2000/svg" xmlns:xlink="http://www.w3.org/1999/xlink" x="0px" y="0px"
	 viewBox="0 0 205.4 203.8" style="enable-background:new 0 0 205.4 203.8;" xml:space="preserve">
<g>
	<path d="M205.1,52.2c-0.8-2.1-3-3.4-5.2-3.1l-16.1,2.1c-5.1-7.7-13.7-12.3-23-12.3c-15.3,0-27.7,12.4-27.7,27.7
		c0,1.2,0.1,2.4,0.3,3.8c0.1,2.5,0.1,6.2,0,10.4c-1.1-1.1-2.3-2-3.5-3C113,65.6,74.7,19.8,72.3,4.1C72,2,70.2,0.3,68.1,0
		S63.8,1,63,3c-0.2,0.6-5.3,13.1-9.5,29.3c-3.5-4.4-6-8.3-6.9-11.3c-0.6-2.1-2.6-3.6-4.8-3.4c-2.2,0.1-4,1.6-4.5,3.7
		c-1.8,7.8-17.2,76.3,8.4,96.8c11.4,9.1,24.2,14.5,35.4,19.3c4.9,2.1,9.6,4.1,13.8,6.2c-8.4,4.4-16.6,6.7-24.1,6.7
		c-11.7,0-25.3-0.8-36.3-1.5c-22.2-1.3-25-1.5-27.1,2c-0.1,0.2-10.9,22.8-6.3,37.3c1.5,4.6,4.4,8,8.5,9.8c14.6,6.3,52-4.2,61.5-7.1
		c6.7,3,30.7,13,55.5,13c12.9,0,26-2.7,36.9-10.5c34.4-24.6,26.2-65.4,23.5-78.8l-0.2-1.3c-1.1-5.7-2.9-12.2-4.6-18.6
		c-0.7-2.7-1.4-5.3-2-7.7c6.7-5.3,8.1-12.3,8.2-18.8L203.3,58C205.2,56.7,205.9,54.3,205.1,52.2z M67.7,18.7
		c12.1,22.8,42.2,56.7,56.5,67.1c3.6,2.6,6.3,6.1,8.2,10.4c-0.3,2.6-0.7,5.1-1.2,7.5c-2.9-6.9-7.8-13.9-16.5-18.4
		c-12.6-6.5-37.3-26.9-53.4-44C63.3,32.7,65.6,24.8,67.7,18.7z M180.9,61.6c-1.4,1-2.2,2.6-2.1,4.3l0,0.4c0,0.1,0,0.3,0,0.4
		c0,7.5-1.7,11.1-6.5,13.9c-1.9,1.1-2.8,3.2-2.3,5.3c0.8,3.4,1.8,7.2,2.9,11.2c1.7,6.2,3.4,12.6,4.4,17.9l0.3,1.3
		c2.4,11.9,9.6,48-19.6,69c-30.2,21.6-83.7-3.9-84.3-4.2c-1.1-0.5-2.4-0.6-3.6-0.3c-16.9,5.3-47.1,12.2-56.6,8
		c-0.9-0.4-2.2-1.2-3.1-3.6c-2.7-7.7,2.1-22.2,4.5-27.8c3.7-0.1,11.8,0.4,19,0.9c11.1,0.7,24.9,1.5,36.9,1.5
		c10.7,0,21.9-3.5,33.5-10.5c2.4,1.9,4.4,4,5.9,6.4c0.9,1.5,2.5,2.2,4.1,2.2c0.9,0,1.8-0.2,2.6-0.8c2.3-1.4,2.9-4.4,1.5-6.7
		c-2.8-4.4-6.7-8-11.1-11c0,0-0.1-0.1-0.1-0.1c-6.5-4.4-14.2-7.7-22.3-11.1c-11.2-4.8-22.8-9.7-33.1-18C37.1,98.8,40.1,60,44.2,36
		c15.3,20.7,50.3,49.7,66,57.8c16.3,8.5,15,31,15,31.3c-0.2,2.7,1.8,5,4.5,5.2c2.7,0.2,5-1.8,5.2-4.5c0-0.3,0.1-1.8,0-4.2
		c9.3-14.7,8.3-47.9,8.1-51.7c0-0.2,0-0.4,0-0.5c-0.2-1-0.2-1.9-0.2-2.7c0-9.9,8.1-18,18-18c6.9,0,13,3.8,16.1,10
		c0.8,1.6,2.4,2.6,4.2,2.7L180.9,61.6z"/>
	<path d="M162.7,55.7c-2.2,0-4.1,1.8-4.1,4.1c0,2.3,1.8,4.1,4.1,4.1c2.3,0,4.1-1.8,4.1-4.1C166.8,57.5,164.9,55.7,162.7,55.7z"/>
</g>
</svg>
