<svg version="1.1" id="join_us" xmlns="http://www.w3.org/2000/svg" xmlns:xlink="http://www.w3.org/1999/xlink" x="0px" y="0px"
	 viewBox="0 0 535 627" style="enable-background:new 0 0 535 627;" xml:space="preserve">
<style type="text/css">
	.st0{clip-path:url(#SVGID_2_);fill:#E2DCE1;}
	.st1{clip-path:url(#SVGID_4_);fill:#F3DFEC;}
	.st2{clip-path:url(#SVGID_6_);fill:#F0CAE0;}
	.st3{clip-path:url(#SVGID_8_);fill:#E9ADCF;}
	.st4{clip-path:url(#SVGID_10_);fill:#E690BD;}
	.st5{clip-path:url(#SVGID_12_);fill:#D970AC;}
	.st6{fill:#EA0A8C;}
</style>
<g>
	<g>
		<g>
			<defs>
				<circle id="SVGID_1_" cx="267" cy="313" r="235.15"/>
			</defs>
			<clipPath id="SVGID_2_">
				<use xlink:href="#SVGID_1_"  style="overflow:visible;"/>
			</clipPath>
			<polygon class="st0" points="193.01,67.8 14.5,197.68 14.5,268.97 288.78,67.8 			"/>
		</g>
		<g>
			<defs>
				<circle id="SVGID_3_" cx="267" cy="313" r="235.15"/>
			</defs>
			<clipPath id="SVGID_4_">
				<use xlink:href="#SVGID_3_"  style="overflow:visible;"/>
			</clipPath>
			<path class="st1" d="M14.5,268.97L288.78,67.8c0,0,83.8,0.28,82.47,0S14.83,338.14,14.83,338.14L14.5,268.97z"/>
		</g>
		<g>
			<defs>
				<circle id="SVGID_5_" cx="267" cy="313" r="235.15"/>
			</defs>
			<clipPath id="SVGID_6_">
				<use xlink:href="#SVGID_5_"  style="overflow:visible;"/>
			</clipPath>
			<path class="st2" d="M371.25,67.8c0,0,95.11,0,93.11,0S15.5,416.95,15.5,416.95l-0.67-78.81L371.25,67.8z"/>
		</g>
		<g>
			<defs>
				<circle id="SVGID_7_" cx="267" cy="313" r="235.15"/>
			</defs>
			<clipPath id="SVGID_8_">
				<use xlink:href="#SVGID_7_"  style="overflow:visible;"/>
			</clipPath>
			<polygon class="st3" points="464.36,67.8 519.5,67.52 519.5,149.26 14.83,537.82 14.5,416.95 			"/>
		</g>
		<g>
			<defs>
				<circle id="SVGID_9_" cx="267" cy="313" r="235.15"/>
			</defs>
			<clipPath id="SVGID_10_">
				<use xlink:href="#SVGID_9_"  style="overflow:visible;"/>
			</clipPath>
			<polygon class="st4" points="519.5,149.26 519.5,291.59 151.31,572.26 14.5,572.26 14.83,537.82 			"/>
		</g>
		<g>
			<defs>
				<circle id="SVGID_11_" cx="267" cy="313" r="235.15"/>
			</defs>
			<clipPath id="SVGID_12_">
				<use xlink:href="#SVGID_11_"  style="overflow:visible;"/>
			</clipPath>
			<path class="st5" d="M519.5,291.59c0,0,0,156.29,0,154.3S351.99,571.2,351.33,571.36c-0.67,0.16-200.02,0.9-200.02,0.9
				L519.5,291.59z"/>
		</g>
	</g>
	<g>
		<path d="M51.61,153.9c-0.15,3.97-2.6,8.43-2.89,8.86c-0.33,0.49-0.09,0.49,0.36,0.87c0.38,0.25,11.54,7.89,12.29,8.39
			c0.74,0.65,0.58,0.78,0.29,1.21c-0.24,0.47-6.04,8.78-6.46,9.29c-0.49,0.61-0.78,0.81-1.37,0.88c-0.54,0.11-2.58,0.7-4.83,1.14
			c-2.25,0.45-5.72,0.94-6.13,0.98c-0.47,0-0.61-0.02-1.15-0.38c-0.59-0.4-9.09-6.17-15.44-10.35c-6.37-4.27-21.8-14.53-22.25-14.91
			c-0.59-0.4-0.29-0.74-0.09-1.39c0.18-0.5,5.64-8.66,7.74-11.56c2.03-2.79,3.47-3.54,6.43-4.92c2.91-1.42,13.42-3.68,15.51-3.77
			c1.98-0.16,5.83-1.57,12.38,2.66C52.53,145.05,51.94,149.9,51.61,153.9z M30.95,144.44c-3.35-2.24-6.76-2.18-9.41-1.84
			c-2.6,0.37-5.97,1.32-8.3,4.45c-2.31,3.22-7.65,11.07-7.92,11.59c-0.29,0.43-0.34,0.4-0.11,0.63c0.29,0.27,12.64,8.7,18.29,12.41
			c5.71,3.74,18.05,11.94,18.49,12.23c0.38,0.25,0.49,0.56,0.85,0.02s3.82-5.35,4.05-5.81c0.36-0.54,0.34-0.63-0.14-0.96
			c-0.49-0.33-3.83-2.57-7.02-4.7s-7.25-5.17-7.61-5.34c-0.41-0.2-0.18-0.43,0-0.7c0.25-0.38,2.71-4.05,3.93-6.44
			c1.09-2.32,1.38-4.16,0.67-7.07C36,150.1,34.39,146.67,30.95,144.44z M17.12,156.22c0.29-0.67,2.13-3.19,2.97-3.96
			c0.87-0.83,3.34-2.53,6-0.67s2.19,3.74,1.79,5.5c-0.51,1.69-2.3,4.02-2.7,4.61c-0.36,0.54-0.69,0.56-1.17,0.23
			c-0.4-0.34-6.37-4.27-6.97-4.67C16.66,157.01,16.83,156.89,17.12,156.22z"/>
		<path d="M90.24,123.85c0.38,0.35,5.81,5.59,6.48,6.21c0.77,0.7,0.5,0.9,0.2,1.42c-0.44,0.57-18.14,19.79-18.45,20.12
			c-0.35,0.38-0.49,0.44-0.81,0.5c-0.37,0.02-3.03,0.13-5.1,0.08c-2.07,0.04-7.48,0.55-7.8,0.52c-0.37,0.02-0.56-0.07-0.89-0.38
			c-0.24-0.22-11.12-10.38-16.78-15.65c-5.71-5.32-16.17-15.26-16.41-15.48c-0.38-0.35-0.26-0.59,0-0.97
			c0.31-0.34,6.53-7.51,6.75-7.75s0.3-0.52,0.9-0.5c0.51,0.02,12.72-0.51,13.23-0.48c0.56,0.07,0.69,0.02,1.17,0.46
			c0.48,0.35,17.97,16.57,18.69,17.13c0.62,0.57,0.75,0.24,1.1-0.14c0.26-0.38,2.76-3.2,3.16-3.63c0.44-0.48,0.53-0.48,0.94-0.55
			c0.42,0.03,12.23-1.22,12.73-1.29C89.9,123.45,89.86,123.5,90.24,123.85z M76.72,126.19c-0.13,0.14-11.02,12.12-11.33,12.45
			c-0.35,0.38-0.53,0.39-0.77,0.17s-8.09-7.24-9.38-8.33c-1.29-1.19-17.34-15.9-17.49-16.03c-0.14-0.13-0.24-0.13-0.46,0.11
			c-0.18,0.19-5.14,5.61-5.31,5.89c-0.22,0.24-0.08,0.28,0.02,0.37c0.19,0.18,9.78,9.15,11.46,10.77
			c1.72,1.58,21.14,19.65,21.33,19.82c0.24,0.22,0.24,0.31,0.51,0.02c0.22-0.24,17.48-19.16,17.57-19.26
			c0.13-0.14,0.13-0.24-0.06-0.41c-0.14-0.13-5.71-5.41-5.85-5.54C76.76,126.05,76.81,126.09,76.72,126.19z"/>
		<path d="M103.94,77.58c0.23,0.4,0.27,0.45,0.01,0.74c-0.41,0.33-11.09,8.72-11.39,8.87c-0.35,0.28-0.35,0.28-0.04,0.37
			c0.41,0.09,9.03,2.43,9.25,2.5c0.31,0.08,0.35,0.13,0.52,0.33c0.2,0.25,4.74,5.61,4.95,5.86c0.16,0.2,0.24,0.3,0.22,0.49
			c-0.06,0.13-0.12,0.26,0.19,0.35c0.27,0.03,11.98,1.23,12.39,1.32c0.36,0.13,0.45,0.14,0.65,0.4c0.21,0.16,5.7,7.01,6.06,7.47
			s0.31,0.59-0.05,0.87c-0.41,0.33-21.4,17.47-21.65,17.68c-0.25,0.2-0.35,0.19-0.67,0.2c-0.33,0.01-12.02-0.87-12.29-0.9
			c-0.22-0.07-0.61,0.07-0.97-0.39S63.16,88,62.67,87.48c-0.33-0.31-0.26-0.54,0.15-0.95c0.32-0.43,21.61-17.31,21.97-17.59
			c0.3-0.24,0.45-0.27,0.82-0.33c0.38-0.05,10.59,0.43,11.14,0.49s0.49,0.19,0.77,0.55C97.71,70,103.62,77.18,103.94,77.58z
			 M84.48,71.27c-0.12-0.15-0.19-0.35-0.5-0.1c-0.29,0.15-19.55,15.41-19.81,15.61c-0.3,0.24-0.37,0.38-0.08,0.73
			c0.33,0.41,27.15,35.05,27.46,35.22c0.2,0.25,0.2,0.25,0.46,0.05c0.21-0.25,19.93-16.29,20.33-16.62c0.3-0.24,0.13-0.36-0.08-0.52
			c-0.25-0.21-4.71-5.89-4.92-6.14c-0.2-0.25-0.29-0.26-0.55-0.06c-0.26,0.29-13,10.49-13.3,10.74c-0.29,0.15-0.43,0.09-0.63-0.16
			c-0.29-0.26-5.32-6.65-5.53-6.9c-0.21-0.16-0.18-0.44,0.03-0.69c0.31-0.33,6.66-5.41,6.96-5.66c0.25-0.2,0.21-0.25,0.05-0.46
			c-0.16-0.2-4.65-6.02-4.81-6.22c-0.15-0.29-0.11-0.24-0.26-0.12c-0.15,0.12-7.18,5.59-7.44,5.79c-0.2,0.16-0.33,0.1-0.5-0.1
			c-0.16-0.2-5.17-6.35-5.46-6.71c-0.08-0.1-0.07-0.19,0.14-0.45c0.25-0.2,12.6-10.26,12.97-10.64c0.38-0.47,0.29-0.57,0.09-0.82
			C88.96,76.76,84.65,71.38,84.48,71.27z"/>
		<path d="M164.53,85.82c-0.28,0.16-7.48,4.34-7.7,4.47c-0.31,0.1-0.55,0.08-0.87,0.04c-0.27-0.07-4.55-0.8-6.14-1.25
			c-1.59-0.3-5.73-1.19-5.91-1.23c-0.21-0.11-0.33-0.19-0.29,0.01c0.1,0.32,0.77,2.18,1.28,3.75c0.49,1.67,1.04,3.59,1.21,4.02
			c0.14,0.52,0.14,0.52-0.28,0.83c-0.37,0.28-9.75,5.46-10.41,5.76c-0.45,0.25-0.74,0.27-1.27,0.12c-0.56-0.06-11.2-2.96-11.55-3.06
			c-0.39-0.16-0.51-0.38-0.62-0.84c-0.14-0.52-12.9-45.22-13-45.54c-0.05-0.35,0.04-0.47,0.46-0.78c0.51-0.29,10-5.68,10.77-6.04
			s1.07-0.23,2.03-0.1c0.94,0.22,11.42,2.84,12.04,3.01c0.71,0.2,0.74,0.26,1.23,0.73s5.42,5.83,9.76,10.77
			c4.42,4.83,13.87,15.32,14.18,15.74c0.4,0.45,0.43,0.5,0.81,1.04c0.32,0.57,4.25,7.45,4.53,7.82
			C164.98,85.42,164.82,85.66,164.53,85.82z M151.48,81.66c-0.06-0.11-6.5-7.61-13.46-15.25c-8.13-8.93-17.02-18.55-17.09-18.66
			c-0.18-0.19-0.37-0.54-0.6-0.41c-0.23,0.13-9.44,5.36-9.61,5.46c-0.11,0.06-0.17,0.1-0.04,0.47c0.1,0.32,12.4,43.94,12.51,44.4
			c0.04,0.2,0.13,0.23,0.24,0.16s2.21-1.24,3.43-1.99c1.22-0.76,3.55-1.91,3.69-2.06c0.17-0.1,0.14-0.15,0.08-0.27
			c-0.01-0.15-1.02-3.82-1.38-5.11c-0.36-1.44-1.06-3.88-1.04-4.11c-0.01-0.29,0.01-0.38,0.21-0.56c0.28-0.16,2.04-1.14,4.11-2.38
			c2.07-1.23,4.62-2.52,4.96-2.71s0.55-0.08,0.76,0.17c0.18,0.19,5.84,6.71,6.03,6.9c0.18,0.2,0.16,0.28,0.39,0.16
			c0.23-0.13,6.5-3.56,6.78-3.72C151.78,81.94,151.66,81.85,151.48,81.66z M133.01,72.64c0.34,0.33-0.09,0.64-0.39,0.89
			c-0.34,0.19-5.5,3.08-5.87,3.22c-0.11,0.06-0.51,0.29-0.71-0.2c-0.14-0.52-1.58-5.22-2.32-7.86c-0.79-2.61-2.2-7.26-2.45-8.09
			s0.19-0.85,0.47-0.49c0.37,0.39,3.56,3.82,6.38,7C130.8,70.15,132.76,72.33,133.01,72.64z"/>
		<path d="M194.32,59.5c0.84,2.25,2.75,8.13,1.4,11.76c-1.27,3.66-3.57,4.94-5.15,5.73c-1.42,0.67-6.86,2.62-8.84,3.08
			c-1.96,0.52-5.75,0.41-9.45-0.78c-3.5-1.19-7.59-2.86-11.04-5.05c-3.56-2.28-5.69-5.03-6.62-6.97c-0.91-1.88-2.14-4.82-2.26-5.12
			c-0.14-0.37,0.07-0.37,0.37-0.49c0.3-0.11,5.89-2.26,6.74-2.58c0.91-0.34,0.24-0.3-0.08-0.39c-0.25-0.11-0.96-0.34-2.15-0.93
			c-1.25-0.57-1.95-0.94-4.1-2.43c-2.19-1.4-3.48-3.01-4.83-5.14c-1.3-2.01-2.35-4.26-2.66-7.33c-0.31-3.07,0.51-5.32,1.45-7.48
			c0.95-2.3,2.4-3.81,4.91-5.44c2.37-1.65,5.21-2.22,7.57-2.4c2.44-0.35,4.83,0.49,7.38,1.2c2.62,0.69,3.62,1.15,6.42,2.33
			c2.84,1.09,6.32,2.99,8.75,4.51c2.42,1.46,4.1,3.74,4.76,4.96c0.89,1.47,1.5,3.47,1.73,4.07c0.2,0.55,0.1,1-0.16,1.24
			c-0.3,0.32-2.12,1-2.98,1.32c-0.91,0.34-3.82,1.28-4,1.35c-0.21,0.01-0.18,0.07,0.05,0.12c0.25,0.11,1.44,0.71,4.28,2.36
			c2.75,1.61,4.86,3.18,5.88,4.05C192.63,55.89,193.5,57.3,194.32,59.5z M176.2,49.39c-2.4-1.6-6.21-3.44-11.01-2.56
			c-4.68,0.84-6.39,0.72-8.07-0.81s-1.98-4.19-1.13-5.82c0.79-1.61,3.05-3.36,5.85-2.73c2.75,0.5,4.53,4.35,4.6,4.53
			c0.09,0.24,0.11,0.3,0.54,0.15c0.49-0.18,6.61-2.18,6.91-2.3c0.3-0.11,0.45-0.1,0.29-0.52s-0.74-2.36-2.15-4.47
			c-1.45-2.03-3.25-4.27-6.87-5.42c-3.64-1.21-6.82-1-10.23,0.27c-3.35,1.25-6.11,4.64-7.13,7.3c-0.93,2.71-1.56,5.85-0.37,8.88
			c1.26,3,3.43,6.42,6.56,8.1c3.08,1.76,5.74,1.82,7.87,1.58s4.86-0.91,6.27-0.67c1.49,0.28,3.44,0.66,4.54,3.44
			c1.17,2.76-0.22,5.56-3.21,6.47c-2.91,0.94-5.05-0.34-6.04-1.7c-0.97-1.3-1.55-2.68-1.67-2.99c-0.09-0.24-0.21-0.2-0.52-0.08
			c-0.3,0.11-6.62,2.53-6.92,2.65c-0.37,0.14-0.34,0.2-0.27,0.38c0.11,0.3,1.36,3.1,2.93,5.08c1.71,1.79,3.7,3.96,7.76,5.02
			c4.11,0.97,6.59,0.18,8.98-0.85c2.27-0.98,5.49-2.95,7.06-7.49c1.53-4.46,0.49-7.26-0.29-9.53C179.7,53.01,178.39,51,176.2,49.39z
			"/>
		<path d="M229.59,29.06c0.03,0.46,0.04,0.52-0.33,0.66c-0.51,0.1-13.85,2.66-14.18,2.66c-0.45,0.09-0.45,0.09-0.2,0.31
			c0.32,0.27,6.91,6.3,7.07,6.46c0.24,0.22,0.26,0.28,0.31,0.54c0.06,0.32,1.65,7.16,1.71,7.48c0.05,0.25,0.08,0.38-0.02,0.54
			c-0.11,0.09-0.23,0.18,0.01,0.4c0.23,0.15,10.08,6.59,10.4,6.85c0.26,0.28,0.33,0.33,0.4,0.65c0.12,0.24,1.85,8.84,1.97,9.42
			c0.12,0.57,0,0.66-0.44,0.75c-0.51,0.1-27.03,5.72-27.35,5.79c-0.32,0.06-0.4,0.01-0.69-0.13s-10.29-6.28-10.52-6.43
			c-0.17-0.17-0.57-0.22-0.69-0.79c-0.12-0.57-8.47-44.58-8.67-45.27c-0.15-0.43,0.01-0.6,0.57-0.78
			c0.48-0.23,27.15-5.48,27.59-5.57c0.38-0.08,0.52-0.04,0.88,0.09c0.36,0.13,9.21,5.24,9.67,5.54s0.34,0.39,0.44,0.84
			C227.52,19.47,229.49,28.55,229.59,29.06z M215.18,14.53c-0.04-0.19-0.01-0.4-0.4-0.32c-0.33,0-24.44,4.74-24.76,4.8
			c-0.38,0.08-0.5,0.17-0.41,0.61c0.1,0.51,8.07,43.6,8.26,43.89c0.06,0.32,0.06,0.32,0.38,0.25c0.31-0.13,25.18-5.35,25.69-5.45
			c0.38-0.08,0.28-0.26,0.17-0.5c-0.13-0.31-1.49-7.39-1.56-7.71c-0.06-0.32-0.14-0.37-0.46-0.31c-0.37,0.14-16.36,3.37-16.75,3.45
			c-0.33,0-0.42-0.11-0.49-0.43c-0.14-0.37-1.69-8.35-1.75-8.67c-0.12-0.24,0.04-0.47,0.34-0.6c0.43-0.15,8.4-1.76,8.78-1.84
			c0.32-0.06,0.31-0.13,0.25-0.38c-0.05-0.25-1.38-7.48-1.43-7.74c0-0.33,0.01-0.27-0.18-0.23c-0.19,0.04-8.95,1.67-9.27,1.74
			c-0.25,0.05-0.34-0.06-0.4-0.32c-0.05-0.25-1.68-8.02-1.77-8.46c-0.03-0.13,0.03-0.2,0.33-0.33c0.32-0.06,15.9-3.34,16.4-3.51
			c0.55-0.24,0.52-0.37,0.46-0.69C216.65,21.46,215.29,14.71,215.18,14.53z"/>
		<path d="M283.03,62.95c-2.07,2.62-5.84,2.55-7.46,2.58s-7.6-0.21-7.93-0.28c-0.46-0.01-0.65-0.14-0.97-0.47
			c-0.45-0.27-1.73-1.46-3.26-2.92c-1.6-1.53-4.71-4.97-5.03-5.3c-0.25-0.27-0.32-0.46-0.31-0.92c0.01-0.52,0.11-9.16,0.19-9.68
			c0.01-0.46,0.2-0.39,0.4-0.38c0.33,0.01,0.98-0.05,1.96-0.22c0.98-0.24,1.96-0.55,2.69-1.38c0.73-0.77,0.75-1.94,0.85-3.56
			c0.16-1.56,0.54-31.19,0.49-31.72c-0.06-0.46,0.34-0.71,0.86-0.63c0.46,0.01,9.81,0.32,10.4,0.33c0.45,0.07,1.17,0.28,1.61,0.81
			c0.45,0.4,7.9,8.28,8.09,8.48c0.32,0.2,0.51,0.59,0.49,1.31c-0.02,0.85-0.59,33.53-0.58,36.59
			C285.46,58.64,285.1,60.26,283.03,62.95z M274.18,37.04c0.13-3.57,0.25-26.06,0.26-26.58c0.07-0.45,0.01-0.52-0.44-0.66
			c-0.39-0.01-6.63-0.19-7.15-0.2c-0.52-0.01-0.52,0.18-0.53,0.44c-0.01,0.52-0.35,28.21-0.47,30.74c-0.18,2.47-0.47,4.28-2.31,5.29
			c-1.97,1-3.27,0.98-3.59,0.97c-0.39,0.06-0.52,0.05-0.53,0.38c0.06,0.33-0.06,6.37-0.07,6.76c-0.01,0.45-0.08,0.71,0.31,0.72
			c0.46-0.06,3.37,0.46,7.04-1.16c3.54-1.75,5.4-3.6,6.72-7.74C274.73,41.79,274.11,40.54,274.18,37.04z"/>
		<path d="M326.87,62.23c-0.26,1.21-0.95,2.68-2.69,4.51c-1.75,1.9-4.4,2.86-7.13,3.08c-2.79,0.15-6.93-0.7-9.45-1.43
			c-2.4-0.64-4.16-1.58-7.95-5.07c-3.79-3.5-6.45-7.47-7.86-9.8c-1.39-2.46-1.89-5.5-2.18-7.85c-0.28-2.41,1.24-9.08,2.16-14.46
			c0.99-5.44,1.69-9.01,2.06-10.93s1.61-4.35,3.56-6.28c1.89-1.94,5.8-4.61,10.8-4.21c5.08,0.34,7.99,2.32,9.33,3.39
			c1.29,0.99,4.46,3.86,6.52,6.23s3.63,4.92,4.68,6.6c1.03,1.81,1.94,3.53,2.47,6.84c0.49,3.17-0.34,7.58-1.64,15.34
			C328.25,56,327.17,61.16,326.87,62.23z M319.97,36.79c0.75-5.15,1.21-8.03,1.42-10.63s-0.02-6.52-2.92-9.81
			c-2.96-3.3-5.73-4.53-9.28-4.96c-3.49-0.42-6.43-0.1-10.12,3.27c-2.38,2.12-3.95,4.97-4.33,7.01c-0.36,1.85-0.61,3.85-1.71,9.99
			c-1.11,6.21-1.88,10.63-2.05,12.51c-0.15,1.75,0.1,4.75,2.58,7.78c2.41,3.08,4.59,5.07,9.21,5.41c4.47,0.44,6.43,0.1,9.31-1.88
			c2.9-2.11,5.2-4.97,5.91-7.82C318.64,44.81,319.15,41.99,319.97,36.79z M308.17,19.92c1.8,0.28,2.67,0.62,3.85,1.86
			c1.06,1.22,1.08,2.34,0.86,4.15c-0.2,1.68-2.39,15.94-2.56,17.43c-0.22,1.41-1,6.29-5.89,5.65c-4.89-0.71-4.38-4.31-4.43-5.7
			c-0.04-1.39,0.67-6.28,1.36-10.64c0.63-4.38,1.02-6.88,1.25-7.9c0.16-1.03,0.48-2.23,1.62-3.56
			C304.82,20.31,306.3,19.69,308.17,19.92z"/>
		<path d="M346.61,76.21c-0.34,1.19-0.62,0.97-1.12,0.82c-0.44-0.13-8.67-2.52-9.17-2.67s-0.81-0.24-1.12-0.8s-5.54-8.65-5.86-8.95
			c-0.22-0.4-0.29-0.63-0.23-1.08c0.15-0.5,3.59-13.04,6.24-22.15c2.63-9.05,6.71-22.82,6.89-23.45c0.09-0.31,0.08-0.52,0.54-0.45
			c0.46,0.06,9.47,2.82,10.03,2.99c0.56,0.16,0.65,0.32,0.9,0.87c0.22,0.4,5.56,8.79,5.89,9.3c0.22,0.4,0.25,0.55,0.2,0.94
			c-0.13,0.44-4.34,14.92-6.19,21.28C351.75,59.23,346.92,75.15,346.61,76.21z M338.81,64.4c0.13-0.44,4.31-15.06,6.08-21.38
			s5.53-20.39,5.67-20.89c0.15-0.5,0.17-0.83-0.08-0.9s-6.28-1.9-6.66-2.01c-0.37-0.11-0.44-0.13-0.56,0.31
			c-0.16,0.56-3.89,13.15-5.98,20.33c-2.13,7.1-6.11,21.24-6.27,21.8c-0.08,0.52-0.12,0.64,0.17,0.8c0.28,0.22,1.75,0.98,3.68,1.54
			s3.16,0.99,3.37,0.98C338.5,64.99,338.73,64.92,338.81,64.4z"/>
		<path d="M385.39,92.33c-0.5,0.99-0.87,1.18-1.22,1.17c-0.38-0.1-8.34-3.64-9.06-3.95c-0.57-0.32-0.84-0.51-1.28-1.13
			c-0.32-0.56-4.02-6.08-4.4-6.81c-0.33-0.71-0.41-0.53-0.61-0.06c-0.26,0.6-1.35,3.1-1.64,3.75c-0.31,0.72-0.64,0.5-1.21,0.33
			c-0.56-0.17-9.65-4.21-9.98-4.42c-0.36-0.16-0.54-0.23-0.82-0.71c-0.2-0.51-4.07-9.22-4.36-9.84c-0.32-0.57-0.28-0.83,0.01-1.49
			c0.23-0.54,7.26-16.83,8.98-20.76c1.8-3.97,9.66-21.67,9.81-22.03c0.27-0.45,0.35-0.48,0.92-0.31c0.56,0.17,8.04,3.36,8.75,3.67
			c0.74,0.25,0.93,0.62,1.34,1.15c0.38,0.59,4.64,6.28,5.19,7.3c0.43,0.97,0.41,0.53,0.59,0.11c0.21-0.48,1.59-3.49,1.8-3.97
			c0.26-0.6,0.32-0.57,0.8-0.36c0.6,0.26,8.79,3.9,9.69,4.29c0.81,0.42,0.99,0.65,1.32,1.21c0.25,0.39,1.17,1.86,2.22,4.02
			c1.02,2.22,1.26,3.46,1.59,4.17c0.36,0.8,0.17,1.07-0.24,2.17C403.17,50.87,385.8,91.37,385.39,92.33z M379.08,79.79
			c0.18-0.42,17.51-40.66,17.64-40.95c0.04-0.26-0.02-0.44-0.32-0.57c-0.36-0.16-6.72-2.64-6.96-2.75c-0.18-0.08-0.3-0.13-0.53,0.41
			c-0.26,0.6-9.25,21.21-9.56,21.93c-0.34,0.77-0.53,1.54-0.62-0.2c-0.03-1.72,0.22-11.25,0.18-14.74
			c-0.06-3.43-0.12-11.61-0.13-11.9c0.01-0.35,0.04-0.41-0.26-0.54c-0.24-0.1-7.35-2.99-7.79-3.11s-0.4,0.11-0.48,0.29
			c-0.07,0.32-7.66,17.58-9.98,22.74s-7.6,17.6-7.73,17.9c-0.16,0.36-0.27,0.45,0.03,0.58s6.79,2.82,7.19,2.85
			c0.42,0.18,0.48,0.35,0.76-0.45c0.34-0.77,9.82-23.02,10.21-23.91c0.42-0.95,0.43-0.17,0.37,0.3c0.08,0.46-0.02,28.35-0.02,28.85
			c0.06,0.52,0,0.64,0.36,0.8s6.72,2.64,7.08,2.8C378.81,80.24,378.9,80.21,379.08,79.79z"/>
		<path d="M438.35,121.03c-1.55,2.01-6.16,3.96-10.21,2.4c-3.02-1.09-8.18-5.14-10.4-8.65c-2.27-3.55-3.6-9.5-4.08-12.4
			c-0.29-2.93-0.2-6.88,0.45-10.07c0.7-3.15,3.05-6.1,4.87-8.47c1.81-2.46,17.57-23.06,17.77-23.32c0.24-0.31,0.27-0.45,0.68-0.14
			c0.56,0.34,7.44,5.47,7.95,5.87c0.46,0.36,0.54,0.58,0.63,0.89c0.05,0.36,1.19,6.66,1.3,7.8c0.16,0.86,0.04,1.01,0.4,0.55
			c0.4-0.52,2.85-3.71,3.17-4.12c0.4-0.52,0.57-0.63,1.13-0.19c0.57,0.44,7.36,5.58,7.72,5.85c0.36,0.28,0.64,0.66,0.83,1.38
			c0,0.74,1.73,10.76,1.75,11.27c0.01,0.42,0.06,0.46-0.38,1.02C461.58,91.25,440.21,118.61,438.35,121.03z M440.41,100.97
			c3-4.01,17.39-23.04,17.63-23.35c0.23-0.4,0.27-0.45,0.01-0.65c-0.35-0.19-5.5-4.15-6-4.45c-0.46-0.36-0.53-0.16-0.69,0.04
			c-0.2,0.26-17.54,22.92-18.78,24.42s-3.67,4.56-6.96,2.11c-3.38-2.43-2.54-5.23-0.75-7.55c1.77-2.41,18.62-24.63,18.78-24.84
			c0.2-0.26,0.33-0.32,0.07-0.52c-0.16-0.12-5.77-4.44-6.08-4.68c-0.35-0.19-0.47-0.03-0.75,0.33c-0.2,0.26-17.76,23.73-18.43,24.61
			s-3.67,4.88-3.09,10.09c0.46,5.27,3.24,7.74,4.58,8.77s5.65,3.85,10.51,2.75C435.27,107.02,437.46,105.02,440.41,100.97z"/>
		<path d="M471.52,146.62c-1.74,1.66-6.4,5.73-10.26,5.9c-3.87,0.27-5.94-1.34-7.29-2.48c-1.17-1.04-5.11-5.28-6.31-6.92
			c-1.25-1.59-2.63-5.12-2.99-9c-0.28-3.69-0.35-8.1,0.3-12.13c0.7-4.17,2.39-7.21,3.81-8.82c1.37-1.58,3.59-3.86,3.83-4.09
			c0.28-0.27,0.37-0.08,0.59,0.15c0.22,0.24,4.39,4.52,5.02,5.18c0.67,0.71,0.37,0.1,0.33-0.22c0.01-0.28-0.07-1.01,0.01-2.34
			c0.04-1.38,0.1-2.16,0.62-4.72c0.43-2.56,1.4-4.38,2.83-6.46c1.34-1.99,2.99-3.83,5.7-5.33s5.1-1.62,7.44-1.61
			c2.48-0.03,4.44,0.71,6.93,2.38c2.44,1.53,4.09,3.92,5.18,6.02c1.28,2.1,1.45,4.63,1.79,7.26c0.39,2.68,0.37,3.78,0.38,6.81
			c0.11,3.04-0.27,6.98-0.71,9.82c-0.39,2.79-1.83,5.24-2.69,6.32c-1,1.4-2.6,2.74-3.07,3.19c-0.42,0.4-0.89,0.48-1.2,0.34
			c-0.41-0.15-1.75-1.56-2.38-2.22c-0.67-0.71-2.68-3.01-2.82-3.15c-0.09-0.19-0.13-0.14-0.09,0.09c-0.01,0.28-0.09,1.61-0.49,4.86
			c-0.4,3.16-1.02,5.72-1.42,7C474.17,143.65,473.21,145.01,471.52,146.62z M473.69,125.98c0.53-2.84,0.73-7.06-1.97-11.13
			c-2.61-3.97-3.17-5.6-2.43-7.74s3.08-3.46,4.91-3.33c1.79,0.09,4.29,1.49,4.81,4.3c0.62,2.73-2.22,5.88-2.36,6.01
			c-0.19,0.18-0.24,0.22,0.08,0.55c0.36,0.38,4.61,5.22,4.83,5.46c0.22,0.24,0.27,0.37,0.6,0.06c0.33-0.31,1.88-1.61,3.27-3.73
			c1.29-2.13,2.65-4.67,2.28-8.45c-0.32-3.82-1.76-6.67-4.27-9.3c-2.46-2.59-6.66-3.8-9.52-3.69c-2.86,0.2-6,0.86-8.31,3.15
			c-2.27,2.33-4.56,5.68-4.88,9.21c-0.41,3.53,0.58,5.99,1.64,7.86s2.75,4.12,3.08,5.5c0.33,1.48,0.74,3.42-1.38,5.53
			c-2.08,2.15-5.2,1.98-7.21-0.41c-2.01-2.3-1.67-4.78-0.81-6.23c0.82-1.41,1.86-2.48,2.09-2.71c0.19-0.18,0.1-0.27-0.12-0.51
			c-0.22-0.24-4.93-5.09-5.15-5.33c-0.27-0.28-0.32-0.24-0.46-0.1c-0.24,0.22-2.32,2.47-3.52,4.69c-0.98,2.27-2.19,4.96-1.56,9.11
			c0.72,4.16,2.42,6.13,4.31,7.92c1.8,1.7,4.87,3.89,9.66,3.55c4.7-0.34,6.87-2.4,8.65-4.01
			C471.74,130.62,473.07,128.63,473.69,125.98z"/>
		<path d="M482.41,167.54c-0.26,0.19-9.03,6.59-9.24,6.75c-0.16,0.12-0.46,0.26-0.65,0c-0.28-0.28-5.85-7.8-5.96-7.96
			c-0.15-0.21-0.23-0.31-0.18-0.68c0.09-0.31,1.08-12.76,1.18-13.16c-0.02-0.47,0.03-0.51,0.34-0.74c0.37-0.27,8.22-6.16,8.64-6.47
			c0.31-0.23,0.5-0.2,0.73,0.11c0.15,0.21,1.35,1.83,1.51,2.04c0.25,0.22,0.22,0.08,0.53-0.15c0.22-0.25,25.85-23.31,26.14-23.69
			c0.28-0.28,0.53-0.15,0.82,0.12c0.25,0.22,5.82,7.66,5.98,7.87c0.18,0.35,0.26,0.46,0.25,0.78c-0.09,0.31-0.79,12.38-0.75,12.76
			c-0.09,0.31-0.15,0.35-0.42,0.63c-0.31,0.23-10.27,7.75-10.9,8.22c-0.63,0.46-1.11,0.9-1.88,1.39c-0.46,0.26-4.35,2.32-8.03,4.56
			c-3.42,2.04-6.52,4.09-6.73,4.24c-0.51,0.3-0.57,0.43-0.58,0.75c-0.03,0.18-0.34,1.62-0.39,1.99
			C482.77,167.27,482.67,167.34,482.41,167.54z M474.51,159.15c0.26-0.19,6.52-5.06,6.84-5.3c0.21-0.15,0.4-0.22,0.07-0.45
			c-0.28-0.27-1.2-1.62-2.37-3.1c-1.04-1.41-2.02-2.63-2.12-2.88s-0.16-0.21-0.26-0.13c-0.21,0.15-7,5.18-7.16,5.29
			c-0.21,0.15-0.26,0.19-0.15,0.35c0.15,0.21,1.28,1.4,2.4,2.92s2.19,3.07,2.3,3.23C474.17,159.24,474.3,159.3,474.51,159.15z
			 M480.07,148.73c-0.26,0.19-0.22,0.25-0.11,0.4s0.81,1.1,0.98,1.22c0.15,0.21,0.3,0.18,0.51,0.03
			c0.39-0.13,28.15-18.46,28.45-18.6c0.31-0.23,0.2-0.39,0.12-0.49c-0.12-0.16-3.86-5.23-4.02-5.44c-0.19-0.26-0.18-0.35-0.51-0.03
			C505.27,126.07,480.25,148.44,480.07,148.73z"/>
	</g>
	<path class="st6" d="M332.14,319.9c-4.31-5.39-8.61-10.78-12.93-16.16c-1.93-2.39-4.36-2.39-6.27-0.01
		c-4.3,5.36-8.59,10.72-12.88,16.09c-0.25,0.31-0.49,0.64-0.68,0.99c-1,1.79-0.17,3.22,1.89,3.24c1.75,0.02,3.49,0,5.24,0
		c1.28,0,2.57,0,3.86,0c-2.07,19.54-18.84,35.92-37.91,37.94c0-17.26,0-34.44,0-51.68c0.39,0,0.7,0,1.01,0c3.26,0,6.53,0.01,9.79,0
		c3.15-0.01,5.63-2.44,5.64-5.48c0.01-3.14-2.41-5.56-5.62-5.58c-3.29-0.01-6.58,0-9.88,0c-0.3,0-0.61,0-0.92,0
		c-0.03-0.22-0.06-0.33-0.06-0.44c-0.01-4.52-0.02-9.05-0.05-13.57c0-0.5,0.23-0.69,0.64-0.86c7.17-3.01,11.21-9.98,10.23-17.63
		c-1.22-9.53-10.85-16.1-20.21-13.8c-6.92,1.7-12.1,7.7-12.66,14.68c-0.57,7.11,3.47,13.83,10.08,16.62
		c0.75,0.32,0.95,0.68,0.94,1.44c-0.05,4.24-0.04,8.47-0.05,12.71c0,0.25-0.03,0.5-0.05,0.84c-0.35,0-0.66,0-0.97,0
		c-3.24,0-6.47,0-9.71,0c-0.43,0-0.87,0-1.28,0.09c-2.9,0.6-4.77,3.17-4.47,6.11c0.28,2.69,2.73,4.85,5.56,4.86
		c3.32,0.01,6.64,0,9.96,0c0.3,0,0.61,0,0.9,0c0,17.31,0,34.5,0,51.69c-19.68-2.16-35.97-19.03-37.89-37.95c0.32,0,0.63,0,0.94,0
		c2.81,0,5.61,0.01,8.42,0c2.06-0.01,2.89-1.42,1.9-3.22c-0.19-0.35-0.43-0.68-0.68-0.99c-4.27-5.35-8.54-10.69-12.82-16.03
		c-1.98-2.47-4.41-2.47-6.38-0.01c-4.28,5.34-8.56,10.68-12.82,16.03c-0.4,0.51-0.76,1.09-0.98,1.69c-0.42,1.15,0.08,2.04,1.26,2.38
		c0.38,0.11,0.79,0.14,1.18,0.14c2.89,0.01,5.77,0.01,8.71,0.01c1.59,13.76,7.34,25.41,17.46,34.77
		c10.15,9.39,22.22,14.33,36.06,14.67c12.15,0.31,23.26-3.11,33.09-10.24c13.34-9.66,20.9-22.82,22.93-39.21c0.35,0,0.66,0,0.97,0
		c2.75,0,5.5,0.01,8.25,0c2.06-0.01,2.88-1.42,1.9-3.23C332.59,320.5,332.37,320.19,332.14,319.9z M266.86,274.5
		c-2.95-0.01-5.48-2.56-5.45-5.5c0.03-2.99,2.53-5.44,5.52-5.41c2.98,0.03,5.45,2.55,5.41,5.52
		C272.29,272.04,269.77,274.51,266.86,274.5z"/>
	<g>
		<path d="M97.93,309.39l-0.34-1.76c0.71-0.02,1.61-0.26,2.18-0.7c1.39-1.06,1.76-2.97,0.67-4.4c-1.32-1.74-3.61-1.21-5.13-0.04
			c-3.21,2.44-3.18,6.88-0.85,9.94c2.5,3.29,6.34,3.5,9.53,1.07c1.24-0.95,2.59-2.7,2.72-4.27l1.34,1.76
			c-0.53,1.61-1.66,2.89-3,3.91c-4.05,3.08-8.96,2.78-12.13-1.39c-2.97-3.9-2.67-9.37,1.32-12.41c2.6-1.98,5.83-2.09,7.67,0.32
			c1.7,2.24,1.16,5.21-1.04,6.88C100.14,308.85,98.83,309.34,97.93,309.39z"/>
		<path d="M115.4,301.43c1.47,1.93,1.12,4.76-0.83,6.24c-1.95,1.48-4.77,1.07-6.24-0.86c-1.48-1.95-1.12-4.76,0.83-6.24
			C111.11,299.09,113.92,299.48,115.4,301.43z M114.18,302.36c-0.17-0.23-0.37-0.44-0.6-0.63c-0.06,0.32-0.25,0.62-0.52,0.82
			c-0.61,0.47-1.51,0.36-1.97-0.25c-0.2-0.27-0.3-0.59-0.25-0.92c-0.27,0.12-0.53,0.25-0.76,0.43c-1.28,0.97-1.44,2.79-0.48,4.05
			c0.96,1.26,2.77,1.57,4.05,0.6C114.92,305.48,115.14,303.62,114.18,302.36z"/>
		<path d="M131.67,294.63c-1.2,0.92-2.67,0.46-3.5-0.63l-1.69-2.22c-0.71-0.94-1.72-1.23-2.6-0.56c-1.01,0.77-1.02,2.19-0.38,3.19
			l2.97,3.9l-1.38,1.05l-3.14-4.13c-0.71-0.94-1.72-1.23-2.6-0.56c-1.01,0.77-1.03,2.17-0.36,3.17l2.97,3.9l-1.39,1.06l-5.13-6.74
			l1.39-1.06l0.76,0.99c-0.15-1.03,0.24-2.02,1.12-2.69c0.97-0.74,2.19-0.88,3.31-0.25c-0.31-1.15,0.11-2.35,1.16-3.15
			c1.51-1.15,3.39-0.86,4.6,0.73l1.67,2.2c0.41,0.53,1.07,0.69,1.72,0.2c0.31-0.23,0.54-0.59,0.63-1.08l0.95,1.24
			C132.57,293.79,132.13,294.28,131.67,294.63z"/>
		<path d="M136.93,288.73c0.63-0.48,1.28-1.21,1.52-2.12l1.05,1.38c-0.36,0.79-1.06,1.5-1.63,1.94c-2.16,1.64-4.97,1.43-6.56-0.65
			c-1.44-1.89-1.11-4.71,0.78-6.15c1.26-0.96,2.58-1.12,4.08-0.75l-0.98,7.08C135.77,289.4,136.37,289.15,136.93,288.73z
			 M132.56,288.31c0.35,0.46,0.78,0.79,1.27,0.96l0.72-5.4c-0.53-0.02-1.17,0.17-1.59,0.49
			C131.68,285.33,131.62,287.07,132.56,288.31z"/>
		<path d="M146.59,279.69l-2.54-3.34l-2.02,1.54l-0.99-1.3l2.02-1.54l-2.89-3.8l1.38-1.05l2.89,3.8l2.1-1.6l0.99,1.3l-2.1,1.6
			l2.43,3.19c0.47,0.61,1.21,0.95,1.88,0.44c0.42-0.32,0.66-0.72,0.76-1.22l0.95,1.24c-0.15,0.6-0.54,1.04-1.01,1.4
			C149.05,281.41,147.59,281,146.59,279.69z"/>
		<path d="M157.62,269.3c1.47,1.93,1.12,4.76-0.83,6.24c-1.95,1.48-4.77,1.07-6.24-0.86c-1.48-1.95-1.12-4.76,0.83-6.24
			C153.33,266.96,156.14,267.35,157.62,269.3z M156.4,270.23c-0.17-0.23-0.37-0.44-0.6-0.63c-0.06,0.32-0.25,0.62-0.52,0.82
			c-0.61,0.47-1.51,0.36-1.97-0.25c-0.2-0.27-0.3-0.59-0.25-0.92c-0.27,0.12-0.53,0.25-0.76,0.43c-1.28,0.97-1.44,2.79-0.48,4.05
			c0.96,1.26,2.77,1.57,4.05,0.6C157.14,273.35,157.36,271.49,156.4,270.23z"/>
		<path d="M172.22,257.95c1.56,2.04,1.2,4.94-0.77,6.44c-1.93,1.47-4.76,1.09-6.24-0.86l-7.77-10.2l1.4-1.06l7.77,10.2
			c0.92,1.2,2.7,1.45,3.9,0.53c1.28-0.97,1.45-2.73,0.42-4.09c-0.42-0.55-1.26-1.18-2.05-1.07c0.21,0.44,0.02,1.1-0.46,1.46
			c-0.61,0.47-1.61,0.35-2.09-0.28c-0.55-0.73-0.29-1.77,0.4-2.29C168.64,255.27,170.97,256.31,172.22,257.95z"/>
		<path d="M179.86,256.05c0.63-0.48,1.28-1.21,1.52-2.12l1.05,1.38c-0.36,0.79-1.06,1.5-1.63,1.94c-2.16,1.64-4.97,1.43-6.56-0.65
			c-1.44-1.89-1.11-4.71,0.78-6.15c1.26-0.96,2.58-1.12,4.08-0.75l-0.98,7.08C178.71,256.72,179.31,256.47,179.86,256.05z
			 M175.5,255.63c0.35,0.46,0.78,0.79,1.27,0.96l0.72-5.4c-0.53-0.02-1.17,0.17-1.59,0.49C174.62,252.65,174.56,254.39,175.5,255.63
			z"/>
		<path d="M192.8,245.52l0.96,1.26c-0.18,0.59-0.61,1.1-1.11,1.48c-0.86,0.65-1.98,0.6-2.9-0.12c0.16,1.36-0.37,2.57-1.45,3.4
			c-1.97,1.5-4.62,0.95-6.09-0.98c-1.45-1.91-1.28-4.61,0.69-6.11c1.01-0.77,2.23-1,3.42-0.62l-0.83-1.09l1.39-1.06l3.58,4.7
			c0.42,0.55,1.05,0.71,1.62,0.27C192.48,246.36,192.73,246.02,192.8,245.52z M187.65,245.57c-0.86-0.85-2.45-1-3.58-0.14
			c-1.28,0.97-1.44,2.82-0.48,4.08c0.96,1.26,2.78,1.59,4.06,0.62c1.15-0.87,1.41-2.43,0.82-3.49L187.65,245.57z"/>
		<path d="M202.26,238.32l0.95,1.24c-0.17,0.61-0.63,1.11-1.11,1.48c-0.8,0.61-1.88,0.62-2.8-0.04c0.29,1.14-0.08,2.27-1.02,2.98
			c-1.57,1.19-3.46,0.76-4.61-0.75l-3.23-4.24l1.39-1.06l3.14,4.13c0.7,0.92,1.68,1.22,2.66,0.48c0.94-0.71,0.92-2.12,0.3-3.09
			l-2.97-3.9l1.38-1.05l3.58,4.7c0.41,0.54,1.09,0.68,1.64,0.26C201.94,239.16,202.17,238.8,202.26,238.32z"/>
		<path d="M204.05,235.96l-2.54-3.34l-2.02,1.54l-0.99-1.3l2.02-1.54l-2.89-3.8l1.38-1.05l2.89,3.8l2.1-1.6l0.99,1.3l-2.1,1.6
			l2.43,3.19c0.47,0.61,1.21,0.95,1.88,0.44c0.42-0.32,0.66-0.72,0.76-1.22l0.95,1.24c-0.15,0.6-0.54,1.04-1.01,1.4
			C206.5,237.68,205.05,237.28,204.05,235.96z"/>
		<path d="M202.91,223.61c-0.44-0.57-0.36-1.42,0.24-1.87s1.43-0.3,1.87,0.27s0.34,1.4-0.25,1.85
			C204.18,224.3,203.34,224.19,202.91,223.61z M213.24,232.55c-1.17,0.89-2.63,0.43-3.46-0.66l-3.68-4.83l1.38-1.05l3.58,4.7
			c0.41,0.54,1.07,0.69,1.64,0.26c0.38-0.29,0.62-0.65,0.7-1.14l0.95,1.24C214.16,231.7,213.72,232.19,213.24,232.55z"/>
		<path d="M210.44,214.77c-0.97,0.74-1.04,2-0.33,2.94l3.04,3.99l2.1-1.6l0.99,1.3l-2.1,1.6l5.19,6.82c1.05,1.38,1.24,3.65-0.1,4.9
			l-1.38-0.82c0.77-0.77,0.76-2.18,0.1-3.04l-5.19-6.82l-2.02,1.54l-0.99-1.3l2.03-1.54l-3.04-3.99c-1.34-1.76-1.09-3.97,0.69-5.32
			c0.59-0.45,1.24-0.71,1.95-0.76l1.08,1.41C211.68,214.07,211.05,214.31,210.44,214.77z"/>
		<path d="M228.89,218.05l0.95,1.24c-0.17,0.61-0.63,1.11-1.11,1.48c-0.8,0.61-1.88,0.62-2.8-0.04c0.29,1.14-0.08,2.27-1.02,2.98
			c-1.57,1.19-3.46,0.76-4.61-0.75l-3.23-4.24l1.39-1.06l3.14,4.13c0.7,0.92,1.68,1.22,2.66,0.48c0.94-0.71,0.92-2.12,0.3-3.09
			l-2.97-3.9l1.38-1.05l3.58,4.7c0.41,0.54,1.09,0.68,1.64,0.26C228.57,218.9,228.8,218.54,228.89,218.05z"/>
		<path d="M233.63,217.03c-1.17,0.89-2.63,0.43-3.46-0.66l-8.87-11.65l1.39-1.06l8.77,11.52c0.41,0.54,1.07,0.69,1.62,0.27
			c0.38-0.29,0.62-0.65,0.7-1.14l0.95,1.24C234.57,216.17,234.13,216.65,233.63,217.03z"/>
		<path d="M243.13,209.08l-1.08-1.41c0.48,0.12,1.08-0.04,1.49-0.35c0.59-0.45,0.49-1.22,0.08-1.75l-6.24-8.2l1.47-1.12l3.87,5.08
			c0.85-0.23,1.65-0.65,2.33-1.17c1.85-1.41,2.2-3.97,0.79-5.82c-2.23-2.92-5.63-2.17-8.21-0.21c-2.56,1.95-3.92,5.4-1.79,8.19
			c0.55,0.73,1.41,1.34,2.32,1.46l-0.34,1.77c-1.44-0.23-2.54-1-3.41-2.14c-2.76-3.63-1.24-8.05,2.14-10.62
			c3.34-2.54,7.89-3.38,10.74,0.36c1.91,2.5,1.4,6.24-0.93,8.01c-0.8,0.61-1.7,1.14-2.69,1.42l1.5,1.97c1,1.32,1.14,2.84-0.27,3.92
			C244.45,208.8,243.89,209.05,243.13,209.08z"/>
		<path d="M255.81,190.74c0.47,0.61,0.36,1.5-0.27,1.98c-0.42,0.32-1.01,0.34-1.48,0.07c-0.38,0.77-0.26,1.68,0.26,2.49l2.76,3.63
			l-1.39,1.06l-5.13-6.74l1.39-1.06l0.86,1.13c-0.17-1.02,0.12-2.14,0.96-2.78C254.42,190.02,255.33,190.11,255.81,190.74z"/>
		<path d="M265.91,186.88c1.47,1.93,1.12,4.76-0.83,6.24c-1.95,1.48-4.77,1.07-6.24-0.86c-1.48-1.95-1.12-4.76,0.83-6.24
			C261.62,184.54,264.43,184.93,265.91,186.88z M264.69,187.81c-0.17-0.23-0.37-0.44-0.6-0.63c-0.06,0.32-0.25,0.62-0.52,0.82
			c-0.61,0.47-1.5,0.36-1.97-0.25c-0.2-0.27-0.3-0.59-0.25-0.92c-0.27,0.12-0.53,0.25-0.76,0.43c-1.28,0.97-1.44,2.79-0.48,4.05
			c0.96,1.26,2.77,1.57,4.05,0.6C265.43,190.93,265.65,189.07,264.69,187.81z"/>
		<path d="M272.7,178.1l2.27,2.98c1.35,1.78,0.98,3.78-0.78,5.12s-3.79,1.17-5.14-0.61l-3.1-4.07l1.39-1.06l3,3.94
			c0.79,1.03,1.92,1.34,3,0.53c1.09-0.83,1.09-2.01,0.31-3.04l-1.28-1.68c-0.64,0.55-1.6,0.47-2.16-0.26
			c-0.51-0.67-0.4-1.63,0.29-2.15C271.2,177.25,272.17,177.41,272.7,178.1z"/>
		<path d="M271.85,171.14c-0.44-0.57-0.36-1.42,0.24-1.87c0.59-0.45,1.43-0.3,1.86,0.27c0.44,0.57,0.34,1.4-0.25,1.85
			C273.13,171.83,272.29,171.71,271.85,171.14z M282.19,180.08c-1.17,0.89-2.63,0.43-3.46-0.66l-3.68-4.83l1.38-1.05l3.58,4.7
			c0.41,0.54,1.07,0.69,1.64,0.26c0.38-0.29,0.62-0.65,0.7-1.14l0.94,1.24C283.11,179.23,282.67,179.71,282.19,180.08z"/>
		<path d="M292.46,169.66l0.96,1.26c-0.18,0.59-0.61,1.1-1.11,1.48c-0.86,0.65-1.98,0.6-2.9-0.12c0.16,1.36-0.37,2.57-1.46,3.4
			c-1.97,1.5-4.62,0.95-6.09-0.98c-1.45-1.91-1.28-4.61,0.69-6.11c1.01-0.77,2.23-1,3.42-0.62l-6.02-7.91l1.4-1.06l8.77,11.52
			c0.42,0.55,1.05,0.71,1.62,0.27C292.14,170.51,292.4,170.17,292.46,169.66z M287.32,169.72c-0.86-0.85-2.45-1-3.58-0.14
			c-1.28,0.97-1.44,2.82-0.48,4.08c0.96,1.26,2.78,1.59,4.06,0.62c1.15-0.87,1.41-2.43,0.82-3.49L287.32,169.72z"/>
		<path d="M297.59,166.46c0.63-0.48,1.28-1.21,1.52-2.12l1.05,1.38c-0.36,0.79-1.06,1.5-1.63,1.94c-2.16,1.64-4.97,1.43-6.56-0.65
			c-1.44-1.89-1.11-4.71,0.78-6.15c1.26-0.96,2.58-1.12,4.08-0.75l-0.98,7.08C296.44,167.12,297.04,166.88,297.59,166.46z
			 M293.23,166.03c0.35,0.46,0.78,0.79,1.27,0.96l0.72-5.4c-0.53-0.02-1.17,0.17-1.59,0.49
			C292.35,163.05,292.28,164.79,293.23,166.03z"/>
		<path d="M309.86,156.42l0.95,1.24c-0.17,0.61-0.63,1.11-1.07,1.45c-1.2,0.92-2.67,0.46-3.5-0.63l-1.69-2.22
			c-0.71-0.94-1.72-1.23-2.6-0.56c-1.01,0.77-1.03,2.14-0.36,3.17l2.97,3.9l-1.39,1.06l-5.13-6.74l1.39-1.06l0.71,0.94
			c-0.14-1.01,0.3-1.98,1.18-2.65c1.49-1.13,3.36-0.74,4.52,0.78l1.67,2.2c0.41,0.54,1.09,0.68,1.7,0.21
			C309.54,157.27,309.78,156.91,309.86,156.42z"/>
		<path d="M314.87,153.18c0.71-0.54,1.39-1.3,1.63-2.18l1.09,1.43c-0.36,0.79-1.06,1.5-1.75,2.02c-2.06,1.57-4.88,1.39-6.48-0.71
			c-1.44-1.89-1.19-4.65,0.74-6.12c1.07-0.81,2.86-1.51,3.85-0.21c0.48,0.63,0.4,1.48-0.23,1.96c-0.53,0.41-1.43,0.34-1.84-0.2
			c-0.15-0.19-0.24-0.39-0.26-0.58c-0.2,0.09-0.41,0.22-0.58,0.35c-1.26,0.96-1.31,2.6-0.38,3.82
			C311.68,154.1,313.58,154.17,314.87,153.18z"/>
		<path d="M322.96,147.15c0.63-0.48,1.28-1.21,1.52-2.12l1.05,1.38c-0.36,0.79-1.06,1.5-1.63,1.94c-2.16,1.64-4.97,1.43-6.56-0.65
			c-1.44-1.89-1.11-4.71,0.78-6.15c1.26-0.96,2.58-1.12,4.08-0.75l-0.98,7.08C321.81,147.82,322.4,147.57,322.96,147.15z
			 M318.59,146.73c0.35,0.46,0.78,0.79,1.27,0.96l0.72-5.4c-0.53-0.02-1.17,0.17-1.59,0.49
			C317.71,143.75,317.65,145.49,318.59,146.73z"/>
		<path d="M326.11,140.47l-7.72-9.63l1.64-1.25l7.23,10.01L326.11,140.47z M327.81,143.7c-0.45-0.59-0.34-1.43,0.24-1.87
			c0.59-0.45,1.41-0.32,1.87,0.27c0.44,0.57,0.34,1.4-0.25,1.85C329.09,144.38,328.25,144.27,327.81,143.7z"/>
	</g>
	<g>
		<path d="M433.47,310.37l0.34,1.76c-0.71,0.02-1.61,0.26-2.18,0.7c-1.39,1.06-1.76,2.97-0.67,4.4c1.32,1.74,3.61,1.21,5.13,0.04
			c3.21-2.44,3.18-6.88,0.85-9.94c-2.5-3.29-6.34-3.5-9.54-1.07c-1.24,0.95-2.59,2.7-2.72,4.27l-1.34-1.76
			c0.53-1.61,1.66-2.89,3-3.91c4.05-3.08,8.96-2.78,12.13,1.39c2.97,3.9,2.67,9.37-1.32,12.41c-2.6,1.98-5.83,2.09-7.67-0.32
			c-1.7-2.24-1.16-5.21,1.04-6.88C431.26,310.9,432.58,310.42,433.47,310.37z"/>
		<path d="M416,318.32c-1.47-1.93-1.12-4.76,0.83-6.24c1.95-1.48,4.77-1.07,6.24,0.86c1.48,1.95,1.12,4.76-0.83,6.24
			C420.29,320.67,417.49,320.27,416,318.32z M417.23,317.39c0.17,0.23,0.37,0.44,0.6,0.63c0.06-0.32,0.26-0.62,0.52-0.82
			c0.61-0.46,1.5-0.36,1.97,0.25c0.2,0.27,0.3,0.59,0.25,0.92c0.27-0.12,0.53-0.25,0.76-0.43c1.28-0.97,1.44-2.79,0.48-4.05
			s-2.77-1.57-4.05-0.6C416.48,314.28,416.27,316.13,417.23,317.39z"/>
		<path d="M399.73,325.12c1.2-0.92,2.67-0.46,3.5,0.63l1.69,2.22c0.71,0.94,1.72,1.23,2.6,0.56c1.01-0.77,1.02-2.19,0.38-3.19
			l-2.97-3.9l1.38-1.05l3.14,4.13c0.71,0.94,1.72,1.23,2.6,0.56c1.01-0.77,1.03-2.17,0.36-3.17l-2.97-3.9l1.39-1.06l5.13,6.74
			l-1.39,1.06l-0.76-0.99c0.15,1.03-0.24,2.02-1.12,2.69c-0.97,0.74-2.19,0.88-3.31,0.25c0.31,1.15-0.11,2.35-1.16,3.15
			c-1.51,1.15-3.39,0.86-4.6-0.73l-1.67-2.2c-0.41-0.53-1.07-0.69-1.72-0.2c-0.3,0.23-0.54,0.59-0.62,1.08l-0.95-1.24
			C398.83,325.96,399.27,325.47,399.73,325.12z"/>
		<path d="M394.47,331.02c-0.63,0.48-1.28,1.21-1.52,2.12l-1.05-1.38c0.36-0.79,1.06-1.5,1.63-1.94c2.16-1.64,4.97-1.43,6.56,0.65
			c1.44,1.89,1.11,4.71-0.78,6.15c-1.26,0.96-2.58,1.12-4.08,0.75l0.98-7.08C395.63,330.36,395.03,330.6,394.47,331.02z
			 M398.84,331.45c-0.35-0.46-0.78-0.79-1.27-0.96l-0.72,5.4c0.53,0.02,1.17-0.17,1.59-0.49
			C399.72,334.43,399.78,332.69,398.84,331.45z"/>
		<path d="M384.81,340.07l2.54,3.34l2.02-1.54l0.99,1.3l-2.02,1.54l2.89,3.8l-1.38,1.05l-2.89-3.8l-2.1,1.6l-0.99-1.3l2.1-1.6
			l-2.43-3.19c-0.47-0.61-1.21-0.95-1.88-0.44c-0.42,0.32-0.66,0.72-0.76,1.22l-0.95-1.24c0.15-0.6,0.54-1.04,1.01-1.4
			C382.36,338.35,383.81,338.75,384.81,340.07z"/>
		<path d="M373.78,350.45c-1.47-1.93-1.12-4.76,0.83-6.24c1.95-1.48,4.77-1.07,6.24,0.86c1.48,1.95,1.12,4.76-0.83,6.24
			C378.07,352.8,375.27,352.4,373.78,350.45z M375.01,349.52c0.17,0.23,0.37,0.44,0.6,0.63c0.06-0.32,0.25-0.62,0.52-0.82
			c0.61-0.46,1.51-0.36,1.97,0.25c0.2,0.27,0.3,0.59,0.25,0.92c0.27-0.12,0.53-0.25,0.76-0.43c1.28-0.97,1.44-2.79,0.48-4.05
			c-0.96-1.26-2.77-1.57-4.05-0.6C374.26,346.41,374.05,348.26,375.01,349.52z"/>
		<path d="M359.18,361.81c-1.56-2.04-1.2-4.94,0.77-6.44c1.93-1.47,4.76-1.08,6.24,0.86l7.77,10.2l-1.4,1.06l-7.76-10.2
			c-0.92-1.2-2.7-1.45-3.9-0.53c-1.28,0.97-1.45,2.73-0.42,4.09c0.42,0.55,1.26,1.18,2.05,1.07c-0.21-0.44-0.02-1.1,0.46-1.46
			c0.61-0.46,1.61-0.35,2.09,0.28c0.55,0.73,0.29,1.77-0.4,2.29C362.76,364.49,360.43,363.45,359.18,361.81z"/>
		<path d="M351.54,363.7c-0.63,0.48-1.28,1.21-1.52,2.12l-1.05-1.38c0.36-0.79,1.06-1.5,1.63-1.94c2.16-1.64,4.97-1.43,6.56,0.65
			c1.44,1.89,1.11,4.71-0.78,6.15c-1.26,0.96-2.58,1.12-4.08,0.75l0.98-7.08C352.69,363.04,352.09,363.28,351.54,363.7z
			 M355.9,364.12c-0.35-0.46-0.78-0.79-1.27-0.96l-0.72,5.4c0.53,0.02,1.17-0.17,1.59-0.49C356.78,367.1,356.85,365.37,355.9,364.12
			z"/>
		<path d="M338.6,374.24l-0.96-1.26c0.18-0.59,0.61-1.1,1.11-1.48c0.86-0.65,1.98-0.61,2.9,0.12c-0.16-1.36,0.37-2.57,1.45-3.4
			c1.97-1.5,4.62-0.95,6.09,0.98c1.45,1.91,1.28,4.61-0.69,6.11c-1.01,0.77-2.23,1-3.42,0.62l0.83,1.09l-1.39,1.06l-3.58-4.7
			c-0.42-0.55-1.05-0.71-1.62-0.27C338.92,373.39,338.67,373.73,338.6,374.24z M343.75,374.18c0.86,0.85,2.45,1,3.58,0.14
			c1.28-0.97,1.44-2.82,0.48-4.08c-0.96-1.26-2.78-1.59-4.06-0.62c-1.15,0.87-1.41,2.43-0.82,3.49L343.75,374.18z"/>
		<path d="M329.14,381.44l-0.95-1.24c0.17-0.61,0.63-1.11,1.11-1.48c0.8-0.61,1.88-0.62,2.8,0.04c-0.29-1.14,0.08-2.27,1.02-2.98
			c1.57-1.19,3.46-0.76,4.61,0.74l3.23,4.24l-1.39,1.06l-3.14-4.13c-0.7-0.92-1.68-1.22-2.66-0.48c-0.94,0.71-0.92,2.12-0.3,3.1
			l2.97,3.9l-1.38,1.05l-3.58-4.7c-0.41-0.54-1.09-0.68-1.64-0.26C329.46,380.59,329.23,380.95,329.14,381.44z"/>
		<path d="M327.36,383.8l2.54,3.34l2.02-1.54l0.99,1.3l-2.03,1.54l2.89,3.8l-1.38,1.05l-2.89-3.8l-2.1,1.6l-0.99-1.3l2.1-1.6
			L326.1,385c-0.46-0.61-1.21-0.95-1.88-0.44c-0.42,0.32-0.66,0.71-0.76,1.21l-0.95-1.24c0.15-0.6,0.54-1.04,1.01-1.4
			C324.9,382.08,326.35,382.48,327.36,383.8z"/>
		<path d="M318.16,387.2c1.17-0.89,2.63-0.43,3.46,0.66l3.68,4.83l-1.38,1.05l-3.58-4.7c-0.41-0.54-1.07-0.69-1.64-0.26
			c-0.38,0.29-0.62,0.65-0.7,1.14l-0.95-1.24C317.24,388.05,317.68,387.57,318.16,387.2z M328.5,396.14
			c0.44,0.57,0.36,1.42-0.24,1.87s-1.43,0.3-1.87-0.27c-0.44-0.57-0.34-1.4,0.25-1.85C327.22,395.46,328.06,395.57,328.5,396.14z"/>
		<path d="M320.98,404.97c0.97-0.74,1.04-2,0.33-2.94l-3.04-3.99l-2.1,1.6l-0.99-1.3l2.1-1.6l-5.19-6.82
			c-1.05-1.38-1.24-3.64,0.1-4.9l1.38,0.82c-0.77,0.77-0.76,2.18-0.1,3.04l5.19,6.82l2.02-1.54l0.99,1.3l-2.03,1.54l3.04,3.99
			c1.34,1.76,1.09,3.97-0.69,5.32c-0.59,0.45-1.24,0.71-1.95,0.76l-1.08-1.41C319.74,405.68,320.37,405.44,320.98,404.97z"/>
		<path d="M302.51,401.71l-0.95-1.24c0.17-0.61,0.63-1.11,1.11-1.48c0.8-0.61,1.88-0.62,2.8,0.04c-0.29-1.14,0.08-2.27,1.02-2.98
			c1.57-1.19,3.46-0.76,4.61,0.75l3.23,4.24l-1.39,1.06l-3.14-4.13c-0.7-0.92-1.69-1.22-2.66-0.48c-0.94,0.71-0.92,2.12-0.3,3.09
			l2.97,3.9l-1.38,1.05l-3.58-4.7c-0.41-0.54-1.09-0.68-1.64-0.26C302.84,400.86,302.6,401.22,302.51,401.71z"/>
		<path d="M297.77,402.72c1.17-0.89,2.63-0.43,3.46,0.66l8.87,11.65l-1.39,1.06l-8.77-11.52c-0.41-0.54-1.07-0.69-1.62-0.27
			c-0.38,0.29-0.62,0.65-0.7,1.14l-0.95-1.24C296.83,403.59,297.27,403.1,297.77,402.72z"/>
		<path d="M288.27,410.68l1.08,1.41c-0.48-0.12-1.08,0.04-1.49,0.35c-0.59,0.45-0.49,1.22-0.08,1.75l6.24,8.2l-1.47,1.12l-3.87-5.08
			c-0.85,0.23-1.65,0.65-2.33,1.17c-1.85,1.41-2.2,3.97-0.79,5.82c2.23,2.92,5.63,2.17,8.21,0.21c2.56-1.95,3.92-5.4,1.79-8.19
			c-0.55-0.73-1.41-1.34-2.32-1.46l0.34-1.77c1.44,0.23,2.54,1,3.41,2.14c2.76,3.63,1.24,8.05-2.14,10.62
			c-3.34,2.54-7.89,3.38-10.74-0.36c-1.91-2.5-1.4-6.24,0.93-8.01c0.8-0.61,1.7-1.14,2.69-1.42l-1.5-1.97
			c-1-1.32-1.14-2.84,0.28-3.92C286.95,410.96,287.51,410.71,288.27,410.68z"/>
		<path d="M275.59,429.02c-0.46-0.61-0.36-1.5,0.27-1.98c0.42-0.32,1.01-0.34,1.48-0.07c0.38-0.77,0.26-1.68-0.26-2.49l-2.76-3.63
			l1.39-1.06l5.13,6.74l-1.39,1.06l-0.86-1.13c0.17,1.02-0.12,2.14-0.96,2.78C276.98,429.74,276.07,429.65,275.59,429.02z"/>
		<path d="M265.49,432.87c-1.47-1.93-1.12-4.76,0.83-6.24c1.95-1.48,4.77-1.07,6.24,0.86c1.48,1.95,1.12,4.76-0.83,6.24
			C269.78,435.22,266.97,434.82,265.49,432.87z M266.71,431.94c0.17,0.23,0.37,0.44,0.6,0.63c0.06-0.32,0.25-0.62,0.52-0.82
			c0.61-0.46,1.5-0.36,1.97,0.25c0.2,0.27,0.3,0.59,0.25,0.93c0.27-0.12,0.53-0.25,0.76-0.43c1.28-0.97,1.44-2.79,0.48-4.05
			s-2.77-1.57-4.05-0.6S265.75,430.68,266.71,431.94z"/>
		<path d="M258.71,441.65l-2.27-2.98c-1.35-1.78-0.98-3.78,0.78-5.12c1.76-1.34,3.79-1.16,5.14,0.61l3.1,4.07l-1.39,1.06l-3-3.93
			c-0.79-1.03-1.92-1.34-3-0.53c-1.09,0.83-1.09,2.01-0.31,3.04l1.28,1.68c0.64-0.55,1.6-0.47,2.16,0.26
			c0.51,0.67,0.4,1.63-0.29,2.15C260.2,442.51,259.23,442.34,258.71,441.65z"/>
		<path d="M249.21,439.68c1.17-0.89,2.63-0.43,3.46,0.66l3.68,4.83l-1.38,1.05l-3.58-4.7c-0.41-0.54-1.07-0.69-1.64-0.26
			c-0.38,0.29-0.62,0.65-0.7,1.14l-0.94-1.24C248.29,440.53,248.73,440.04,249.21,439.68z M259.55,448.62
			c0.44,0.57,0.36,1.42-0.24,1.87c-0.59,0.45-1.43,0.3-1.87-0.27s-0.34-1.4,0.25-1.85C258.27,447.93,259.11,448.04,259.55,448.62z"
			/>
		<path d="M238.94,450.09l-0.96-1.26c0.18-0.59,0.61-1.1,1.11-1.48c0.86-0.65,1.98-0.61,2.9,0.12c-0.16-1.36,0.37-2.57,1.46-3.4
			c1.97-1.5,4.62-0.95,6.09,0.98c1.45,1.91,1.28,4.61-0.69,6.11c-1.01,0.77-2.23,1-3.42,0.62l6.02,7.91l-1.4,1.06l-8.77-11.52
			c-0.42-0.55-1.05-0.71-1.62-0.27C239.26,449.25,239.01,449.59,238.94,450.09z M244.08,450.04c0.86,0.85,2.45,1,3.58,0.14
			c1.28-0.97,1.44-2.82,0.48-4.08s-2.78-1.59-4.06-0.62c-1.15,0.87-1.41,2.43-0.82,3.49L244.08,450.04z"/>
		<path d="M233.81,453.3c-0.63,0.48-1.28,1.21-1.52,2.12l-1.05-1.38c0.36-0.79,1.06-1.5,1.63-1.94c2.16-1.64,4.97-1.43,6.56,0.65
			c1.44,1.89,1.11,4.71-0.78,6.15c-1.26,0.96-2.58,1.12-4.08,0.75l0.98-7.08C234.96,452.63,234.36,452.88,233.81,453.3z
			 M238.17,453.72c-0.35-0.46-0.78-0.79-1.27-0.96l-0.72,5.4c0.53,0.02,1.17-0.17,1.59-0.49
			C239.05,456.7,239.12,454.96,238.17,453.72z"/>
		<path d="M221.54,463.34l-0.95-1.24c0.17-0.61,0.63-1.11,1.07-1.45c1.2-0.92,2.67-0.46,3.5,0.63l1.69,2.22
			c0.71,0.94,1.72,1.23,2.6,0.56c1.01-0.77,1.03-2.14,0.36-3.17l-2.97-3.9l1.39-1.06l5.13,6.74l-1.39,1.06l-0.71-0.94
			c0.14,1.01-0.3,1.98-1.18,2.65c-1.49,1.13-3.36,0.74-4.52-0.78l-1.67-2.2c-0.41-0.54-1.09-0.68-1.7-0.21
			C221.86,462.49,221.62,462.85,221.54,463.34z"/>
		<path d="M216.53,466.57c-0.71,0.54-1.39,1.3-1.63,2.18l-1.09-1.43c0.36-0.79,1.06-1.5,1.75-2.02c2.06-1.57,4.88-1.39,6.48,0.71
			c1.44,1.89,1.19,4.65-0.74,6.12c-1.07,0.81-2.86,1.51-3.85,0.21c-0.48-0.63-0.4-1.48,0.23-1.96c0.53-0.41,1.43-0.34,1.84,0.2
			c0.15,0.19,0.24,0.39,0.26,0.58c0.2-0.09,0.41-0.22,0.58-0.35c1.26-0.96,1.31-2.6,0.38-3.82
			C219.72,465.65,217.83,465.59,216.53,466.57z"/>
		<path d="M208.44,472.61c-0.63,0.48-1.28,1.21-1.52,2.12l-1.05-1.38c0.36-0.79,1.06-1.5,1.63-1.94c2.16-1.64,4.97-1.43,6.56,0.65
			c1.44,1.89,1.11,4.71-0.78,6.15c-1.26,0.96-2.58,1.12-4.08,0.75l0.98-7.08C209.6,471.94,209,472.19,208.44,472.61z M212.81,473.03
			c-0.35-0.46-0.78-0.79-1.27-0.96l-0.72,5.4c0.53,0.02,1.17-0.17,1.59-0.49C213.69,476.01,213.75,474.27,212.81,473.03z"/>
		<path d="M203.59,476.06c0.45,0.59,0.34,1.43-0.24,1.87c-0.59,0.45-1.41,0.32-1.87-0.27c-0.44-0.57-0.34-1.4,0.25-1.85
			C202.31,475.37,203.15,475.49,203.59,476.06z M205.29,479.29l7.72,9.63l-1.64,1.25l-7.23-10.01L205.29,479.29z"/>
	</g>
	<g>
		<path d="M482.39,472.1c0.15-3.97,2.6-8.43,2.89-8.86c0.33-0.49,0.09-0.49-0.36-0.87c-0.38-0.25-11.54-7.89-12.29-8.39
			c-0.74-0.65-0.58-0.78-0.29-1.21c0.24-0.47,6.04-8.78,6.46-9.29c0.49-0.61,0.78-0.81,1.37-0.88c0.54-0.11,2.58-0.7,4.83-1.14
			c2.25-0.45,5.72-0.94,6.13-0.98c0.47,0,0.61,0.02,1.15,0.38c0.59,0.4,9.09,6.17,15.44,10.35c6.37,4.27,21.8,14.53,22.25,14.91
			c0.59,0.4,0.29,0.74,0.09,1.39c-0.18,0.5-5.64,8.66-7.74,11.56c-2.03,2.79-3.47,3.54-6.43,4.92c-2.91,1.42-13.42,3.68-15.51,3.77
			c-1.98,0.16-5.83,1.57-12.38-2.66C481.47,480.95,482.06,476.1,482.39,472.1z M503.05,481.56c3.35,2.24,6.75,2.18,9.41,1.84
			c2.6-0.37,5.97-1.32,8.3-4.45c2.31-3.22,7.65-11.07,7.92-11.59c0.29-0.43,0.34-0.4,0.11-0.63c-0.29-0.27-12.63-8.7-18.29-12.41
			c-5.71-3.74-18.05-11.94-18.49-12.23c-0.38-0.25-0.49-0.56-0.85-0.02s-3.82,5.35-4.05,5.81c-0.36,0.54-0.34,0.63,0.14,0.96
			c0.49,0.33,3.83,2.57,7.02,4.7s7.25,5.17,7.61,5.34c0.41,0.2,0.18,0.43,0,0.7c-0.25,0.38-2.71,4.05-3.93,6.44
			c-1.09,2.32-1.38,4.16-0.67,7.07C498,475.9,499.61,479.33,503.05,481.56z M516.88,469.78c-0.29,0.67-2.13,3.19-2.97,3.96
			c-0.87,0.83-3.34,2.54-6,0.67s-2.19-3.74-1.79-5.5c0.51-1.69,2.3-4.02,2.7-4.61c0.36-0.54,0.69-0.56,1.17-0.23
			c0.4,0.34,6.37,4.27,6.97,4.67C517.34,468.99,517.17,469.11,516.88,469.78z"/>
		<path d="M443.76,502.15c-0.38-0.35-5.81-5.59-6.48-6.21c-0.77-0.7-0.5-0.9-0.2-1.42c0.43-0.57,18.14-19.79,18.45-20.12
			c0.35-0.38,0.49-0.44,0.81-0.5c0.37-0.02,3.03-0.13,5.1-0.08c2.07-0.04,7.48-0.55,7.8-0.52c0.37-0.02,0.55,0.07,0.89,0.38
			c0.24,0.22,11.12,10.38,16.78,15.65c5.71,5.32,16.17,15.26,16.41,15.48c0.38,0.35,0.26,0.59,0,0.97
			c-0.31,0.34-6.53,7.51-6.75,7.75s-0.3,0.52-0.9,0.5c-0.51-0.02-12.72,0.5-13.23,0.48c-0.55-0.07-0.69-0.02-1.17-0.46
			c-0.48-0.35-17.97-16.57-18.69-17.13c-0.62-0.57-0.75-0.24-1.1,0.14c-0.26,0.38-2.76,3.2-3.15,3.63
			c-0.44,0.48-0.53,0.48-0.94,0.55c-0.41-0.03-12.23,1.22-12.73,1.29C444.1,502.55,444.14,502.5,443.76,502.15z M457.28,499.81
			c0.13-0.14,11.02-12.12,11.33-12.45c0.35-0.38,0.54-0.39,0.78-0.17c0.24,0.22,8.09,7.24,9.38,8.33
			c1.29,1.19,17.34,15.9,17.49,16.03c0.14,0.13,0.23,0.13,0.46-0.11c0.18-0.19,5.14-5.61,5.31-5.89c0.22-0.24,0.08-0.28-0.02-0.37
			c-0.19-0.18-9.78-9.15-11.46-10.77c-1.72-1.58-21.14-19.65-21.33-19.83c-0.24-0.22-0.24-0.31-0.51-0.02
			c-0.22,0.24-17.48,19.16-17.57,19.26c-0.13,0.14-0.13,0.24,0.06,0.41c0.14,0.13,5.71,5.41,5.85,5.54
			C457.24,499.95,457.19,499.91,457.28,499.81z"/>
		<path d="M430.05,548.42c-0.23-0.4-0.27-0.45-0.01-0.74c0.41-0.33,11.09-8.72,11.38-8.87c0.36-0.29,0.36-0.29,0.04-0.37
			c-0.41-0.09-9.03-2.43-9.25-2.5c-0.31-0.08-0.36-0.13-0.52-0.33c-0.2-0.25-4.74-5.61-4.95-5.87c-0.16-0.2-0.24-0.3-0.22-0.49
			c0.06-0.13,0.12-0.26-0.19-0.35c-0.28-0.03-11.98-1.23-12.39-1.32c-0.36-0.13-0.45-0.14-0.65-0.4c-0.21-0.16-5.7-7.01-6.06-7.47
			s-0.31-0.59,0.05-0.87c0.41-0.33,21.4-17.47,21.65-17.68s0.34-0.19,0.67-0.2c0.32-0.01,12.02,0.87,12.29,0.9
			c0.22,0.07,0.61-0.07,0.97,0.39c0.37,0.46,27.96,35.74,28.45,36.26c0.34,0.31,0.26,0.54-0.15,0.95
			c-0.33,0.43-21.61,17.31-21.97,17.6c-0.3,0.24-0.45,0.27-0.82,0.32c-0.38,0.05-10.59-0.43-11.14-0.49s-0.49-0.19-0.77-0.55
			C436.29,556,430.38,548.82,430.05,548.42z M449.52,554.73c0.12,0.15,0.19,0.34,0.5,0.1c0.29-0.15,19.55-15.41,19.81-15.61
			c0.3-0.24,0.37-0.38,0.08-0.73c-0.32-0.41-27.15-35.05-27.46-35.22c-0.2-0.25-0.2-0.25-0.46-0.05
			c-0.21,0.25-19.93,16.29-20.33,16.62c-0.3,0.24-0.13,0.36,0.08,0.52c0.25,0.21,4.71,5.88,4.92,6.14s0.29,0.26,0.55,0.06
			c0.26-0.29,13-10.49,13.3-10.74c0.29-0.15,0.43-0.09,0.63,0.16c0.29,0.26,5.32,6.65,5.53,6.9c0.21,0.16,0.18,0.44-0.03,0.69
			c-0.31,0.33-6.66,5.41-6.96,5.66c-0.25,0.2-0.21,0.25-0.05,0.46c0.16,0.2,4.65,6.02,4.82,6.22c0.15,0.29,0.11,0.24,0.26,0.12
			s7.18-5.59,7.44-5.79c0.2-0.16,0.34-0.1,0.5,0.1s5.17,6.35,5.46,6.71c0.08,0.1,0.07,0.19-0.14,0.45
			c-0.25,0.2-12.6,10.26-12.97,10.64c-0.38,0.47-0.29,0.57-0.09,0.82C445.04,549.24,449.35,554.62,449.52,554.73z"/>
		<path d="M369.47,540.18c0.28-0.16,7.48-4.34,7.71-4.46c0.31-0.1,0.55-0.08,0.87-0.04c0.26,0.07,4.55,0.8,6.14,1.25
			c1.58,0.3,5.73,1.18,5.91,1.24c0.21,0.11,0.33,0.19,0.29-0.01c-0.1-0.32-0.77-2.18-1.28-3.75c-0.49-1.67-1.04-3.59-1.21-4.02
			c-0.14-0.52-0.14-0.52,0.28-0.83c0.37-0.28,9.75-5.46,10.41-5.76c0.45-0.25,0.74-0.27,1.27-0.12c0.56,0.06,11.2,2.96,11.55,3.06
			c0.39,0.16,0.51,0.38,0.62,0.84c0.14,0.52,12.9,45.22,13,45.54c0.04,0.35-0.04,0.47-0.46,0.78c-0.51,0.29-10,5.68-10.77,6.04
			s-1.07,0.22-2.03,0.1c-0.94-0.22-11.42-2.84-12.04-3.01c-0.71-0.2-0.74-0.26-1.23-0.73s-5.42-5.83-9.76-10.77
			c-4.42-4.83-13.88-15.32-14.19-15.74c-0.4-0.45-0.43-0.5-0.8-1.04c-0.32-0.57-4.25-7.45-4.53-7.82
			C369.02,540.58,369.18,540.34,369.47,540.18z M382.52,544.34c0.06,0.11,6.5,7.61,13.46,15.25c8.13,8.93,17.02,18.55,17.09,18.66
			c0.18,0.2,0.38,0.54,0.6,0.41s9.44-5.36,9.61-5.46c0.11-0.06,0.17-0.1,0.04-0.47c-0.1-0.32-12.4-43.94-12.51-44.4
			c-0.04-0.2-0.13-0.23-0.24-0.16s-2.21,1.24-3.43,2c-1.22,0.75-3.55,1.91-3.69,2.06c-0.17,0.1-0.14,0.15-0.08,0.27
			c0.01,0.14,1.02,3.82,1.38,5.11c0.36,1.44,1.05,3.88,1.04,4.11c0.01,0.29-0.01,0.38-0.21,0.56c-0.28,0.16-2.04,1.14-4.11,2.38
			c-2.07,1.23-4.62,2.52-4.96,2.71s-0.55,0.08-0.76-0.17c-0.18-0.2-5.84-6.71-6.03-6.9c-0.18-0.2-0.16-0.28-0.38-0.16
			s-6.5,3.56-6.78,3.72C382.22,544.06,382.34,544.14,382.52,544.34z M400.99,553.36c-0.34-0.33,0.09-0.64,0.39-0.89
			c0.34-0.19,5.5-3.08,5.87-3.22c0.11-0.06,0.51-0.29,0.71,0.2c0.14,0.52,1.58,5.22,2.32,7.86c0.79,2.61,2.2,7.26,2.45,8.09
			c0.24,0.83-0.19,0.85-0.47,0.49c-0.37-0.39-3.55-3.82-6.38-7C403.2,555.85,401.24,553.67,400.99,553.36z"/>
		<path d="M339.68,566.5c-0.84-2.25-2.75-8.13-1.4-11.76c1.27-3.66,3.57-4.94,5.15-5.73c1.42-0.67,6.86-2.62,8.84-3.08
			c1.96-0.52,5.75-0.41,9.45,0.78c3.5,1.19,7.59,2.86,11.04,5.05c3.56,2.28,5.69,5.03,6.62,6.97c0.91,1.88,2.14,4.82,2.26,5.12
			c0.14,0.37-0.07,0.37-0.37,0.49c-0.3,0.11-5.89,2.26-6.74,2.58c-0.91,0.34-0.24,0.3,0.08,0.39c0.25,0.11,0.96,0.34,2.15,0.93
			c1.25,0.57,1.95,0.94,4.1,2.43c2.19,1.4,3.48,3,4.83,5.14c1.3,2.01,2.35,4.26,2.66,7.33s-0.51,5.32-1.45,7.47
			c-0.95,2.3-2.4,3.81-4.91,5.44c-2.37,1.65-5.21,2.22-7.57,2.4c-2.44,0.35-4.83-0.49-7.38-1.2c-2.62-0.69-3.62-1.15-6.42-2.33
			c-2.84-1.09-6.32-2.99-8.75-4.51c-2.42-1.46-4.1-3.75-4.76-4.96c-0.89-1.47-1.5-3.46-1.73-4.07c-0.2-0.55-0.1-1,0.16-1.24
			c0.3-0.32,2.12-1,2.98-1.32c0.91-0.34,3.82-1.29,4-1.35c0.21-0.01,0.18-0.07-0.05-0.12c-0.25-0.12-1.44-0.71-4.28-2.36
			c-2.75-1.61-4.86-3.18-5.88-4.05C341.37,570.11,340.5,568.7,339.68,566.5z M357.8,576.61c2.4,1.6,6.21,3.45,11.01,2.56
			c4.68-0.84,6.39-0.72,8.07,0.81s1.98,4.19,1.13,5.82c-0.79,1.61-3.05,3.36-5.85,2.73c-2.75-0.5-4.53-4.35-4.6-4.53
			c-0.09-0.24-0.11-0.3-0.54-0.15c-0.49,0.18-6.61,2.18-6.91,2.3c-0.3,0.11-0.45,0.1-0.29,0.52s0.74,2.36,2.15,4.47
			c1.45,2.03,3.25,4.27,6.87,5.42c3.64,1.21,6.82,1,10.23-0.27c3.35-1.25,6.11-4.63,7.13-7.3c0.93-2.71,1.56-5.86,0.37-8.88
			c-1.26-3-3.43-6.42-6.55-8.1c-3.09-1.76-5.74-1.81-7.87-1.58s-4.86,0.91-6.27,0.67c-1.49-0.28-3.44-0.66-4.54-3.44
			c-1.17-2.76,0.22-5.56,3.21-6.47c2.91-0.94,5.05,0.34,6.04,1.7c0.97,1.3,1.55,2.68,1.67,2.99c0.09,0.24,0.21,0.2,0.52,0.08
			c0.3-0.11,6.62-2.53,6.92-2.65c0.37-0.14,0.34-0.2,0.28-0.38c-0.11-0.3-1.36-3.1-2.93-5.08c-1.71-1.79-3.7-3.96-7.76-5.02
			c-4.11-0.97-6.59-0.18-8.98,0.85c-2.27,0.98-5.49,2.95-7.06,7.49c-1.53,4.46-0.49,7.26,0.29,9.53
			C354.3,572.99,355.61,575,357.8,576.61z"/>
		<path d="M304.41,596.94c-0.03-0.46-0.04-0.52,0.33-0.66c0.51-0.1,13.85-2.66,14.18-2.66c0.45-0.09,0.45-0.09,0.2-0.31
			c-0.32-0.27-6.91-6.3-7.07-6.46c-0.24-0.22-0.26-0.28-0.31-0.54c-0.06-0.32-1.64-7.16-1.71-7.48c-0.05-0.25-0.08-0.38,0.02-0.54
			c0.11-0.09,0.23-0.18-0.01-0.39c-0.23-0.15-10.08-6.59-10.4-6.85c-0.25-0.28-0.33-0.33-0.4-0.65c-0.12-0.24-1.85-8.84-1.97-9.42
			c-0.12-0.57,0-0.66,0.45-0.75c0.51-0.1,27.03-5.72,27.35-5.79c0.32-0.06,0.4-0.01,0.69,0.12c0.29,0.14,10.29,6.28,10.52,6.43
			c0.17,0.17,0.57,0.22,0.69,0.79s8.47,44.58,8.67,45.27c0.15,0.43-0.01,0.6-0.57,0.78c-0.48,0.23-27.15,5.48-27.59,5.57
			c-0.38,0.08-0.52,0.04-0.88-0.09c-0.36-0.13-9.21-5.24-9.67-5.54c-0.46-0.3-0.35-0.39-0.44-0.84
			C306.48,606.53,304.51,597.45,304.41,596.94z M318.82,611.47c0.04,0.19,0.01,0.4,0.39,0.32c0.33,0,24.44-4.73,24.76-4.8
			c0.38-0.08,0.5-0.17,0.41-0.61c-0.1-0.51-8.07-43.6-8.26-43.89c-0.06-0.32-0.06-0.32-0.38-0.25c-0.31,0.13-25.18,5.35-25.69,5.45
			c-0.38,0.08-0.28,0.25-0.17,0.5c0.13,0.31,1.49,7.39,1.56,7.71c0.06,0.32,0.14,0.37,0.46,0.3c0.37-0.14,16.36-3.37,16.75-3.45
			c0.33,0,0.42,0.11,0.49,0.43c0.14,0.37,1.68,8.35,1.75,8.67c0.12,0.24-0.04,0.47-0.34,0.6c-0.43,0.15-8.4,1.76-8.78,1.84
			c-0.32,0.06-0.31,0.13-0.25,0.38c0.05,0.26,1.38,7.48,1.43,7.74c0,0.33-0.01,0.27,0.18,0.23s8.95-1.67,9.27-1.74
			c0.25-0.05,0.34,0.06,0.4,0.32s1.68,8.02,1.77,8.46c0.03,0.13-0.03,0.2-0.33,0.33c-0.32,0.06-15.9,3.34-16.4,3.51
			c-0.55,0.24-0.52,0.37-0.46,0.69C317.35,604.54,318.71,611.29,318.82,611.47z"/>
		<path d="M250.97,563.05c2.07-2.62,5.84-2.55,7.46-2.58s7.6,0.21,7.93,0.28c0.46,0.01,0.65,0.14,0.97,0.47
			c0.45,0.27,1.73,1.46,3.26,2.92c1.6,1.53,4.71,4.97,5.03,5.3c0.26,0.27,0.32,0.46,0.31,0.92c-0.01,0.52-0.11,9.16-0.19,9.68
			c-0.01,0.46-0.2,0.39-0.4,0.38c-0.33-0.01-0.98,0.05-1.96,0.22c-0.98,0.24-1.96,0.55-2.69,1.38c-0.73,0.77-0.75,1.94-0.85,3.56
			c-0.16,1.56-0.54,31.2-0.49,31.72c0.06,0.46-0.34,0.71-0.86,0.63c-0.46-0.01-9.81-0.32-10.39-0.33c-0.45-0.07-1.17-0.28-1.61-0.81
			c-0.45-0.4-7.9-8.28-8.09-8.48c-0.32-0.2-0.51-0.6-0.49-1.31c0.02-0.84,0.59-33.53,0.58-36.59
			C248.54,567.36,248.9,565.74,250.97,563.05z M259.82,588.96c-0.13,3.57-0.25,26.06-0.26,26.58c-0.07,0.45-0.01,0.52,0.44,0.66
			c0.39,0.01,6.63,0.19,7.15,0.2s0.52-0.18,0.53-0.45c0.01-0.52,0.35-28.21,0.47-30.74c0.18-2.47,0.47-4.28,2.31-5.29
			c1.97-1,3.27-0.98,3.59-0.97c0.39-0.06,0.52-0.05,0.53-0.38c-0.06-0.33,0.06-6.37,0.07-6.76c0.01-0.46,0.08-0.71-0.31-0.72
			c-0.46,0.06-3.37-0.46-7.04,1.16c-3.54,1.75-5.4,3.6-6.72,7.74C259.27,584.21,259.89,585.46,259.82,588.96z"/>
		<path d="M207.13,563.77c0.26-1.21,0.95-2.68,2.69-4.51c1.75-1.89,4.4-2.86,7.13-3.08c2.79-0.15,6.93,0.7,9.45,1.43
			c2.4,0.64,4.16,1.58,7.95,5.08s6.45,7.47,7.86,9.8c1.39,2.46,1.89,5.5,2.18,7.85c0.28,2.41-1.24,9.08-2.16,14.46
			c-0.99,5.44-1.69,9.01-2.06,10.93s-1.61,4.35-3.56,6.28c-1.89,1.94-5.8,4.61-10.8,4.21c-5.08-0.34-7.99-2.32-9.33-3.39
			c-1.29-0.99-4.46-3.86-6.52-6.23s-3.63-4.92-4.68-6.6c-1.03-1.81-1.94-3.53-2.47-6.84c-0.49-3.17,0.34-7.58,1.64-15.34
			C205.75,570,206.83,564.84,207.13,563.77z M214.03,589.21c-0.75,5.15-1.21,8.04-1.42,10.63s0.02,6.52,2.92,9.81
			c2.96,3.3,5.73,4.53,9.28,4.96c3.49,0.42,6.43,0.1,10.12-3.27c2.38-2.12,3.95-4.97,4.33-7.01c0.36-1.85,0.61-3.85,1.71-9.99
			c1.11-6.21,1.88-10.62,2.05-12.51c0.15-1.75-0.1-4.75-2.58-7.78c-2.41-3.08-4.59-5.07-9.21-5.41c-4.47-0.44-6.43-0.1-9.31,1.88
			c-2.9,2.11-5.2,4.97-5.91,7.82C215.36,581.19,214.85,584.01,214.03,589.21z M225.83,606.08c-1.8-0.28-2.67-0.62-3.85-1.86
			c-1.06-1.22-1.08-2.34-0.86-4.15c0.2-1.68,2.39-15.94,2.56-17.43c0.22-1.41,1-6.29,5.89-5.65c4.89,0.71,4.38,4.31,4.43,5.7
			c0.04,1.39-0.67,6.28-1.36,10.64c-0.63,4.38-1.02,6.88-1.25,7.9c-0.16,1.03-0.48,2.23-1.62,3.56
			C229.18,605.69,227.7,606.31,225.83,606.08z"/>
		<path d="M187.39,549.79c0.34-1.19,0.62-0.97,1.12-0.82c0.44,0.13,8.67,2.52,9.17,2.67c0.5,0.15,0.81,0.24,1.12,0.8
			s5.54,8.65,5.86,8.95c0.22,0.4,0.29,0.63,0.23,1.08c-0.15,0.5-3.59,13.04-6.24,22.15c-2.63,9.05-6.71,22.82-6.89,23.45
			c-0.09,0.31-0.08,0.52-0.54,0.45s-9.47-2.82-10.03-2.99s-0.65-0.33-0.9-0.87c-0.22-0.4-5.56-8.79-5.89-9.3
			c-0.22-0.4-0.25-0.54-0.2-0.94c0.13-0.44,4.34-14.92,6.19-21.28C182.25,566.77,187.08,550.85,187.39,549.79z M195.19,561.6
			c-0.13,0.44-4.31,15.06-6.08,21.38s-5.53,20.39-5.67,20.89c-0.15,0.5-0.17,0.83,0.08,0.9s6.28,1.9,6.66,2
			c0.37,0.11,0.44,0.13,0.56-0.31c0.16-0.56,3.89-13.15,5.98-20.33c2.13-7.1,6.11-21.24,6.27-21.8c0.08-0.52,0.12-0.64-0.17-0.79
			c-0.28-0.21-1.75-0.98-3.68-1.54s-3.16-0.99-3.37-0.98C195.5,561.01,195.27,561.08,195.19,561.6z"/>
		<path d="M148.61,533.67c0.5-0.99,0.87-1.18,1.22-1.17c0.38,0.1,8.34,3.64,9.06,3.95c0.57,0.32,0.84,0.51,1.28,1.12
			c0.32,0.57,4.02,6.08,4.4,6.81c0.33,0.71,0.41,0.53,0.61,0.05c0.26-0.6,1.35-3.1,1.64-3.75c0.31-0.71,0.64-0.5,1.21-0.33
			c0.56,0.17,9.65,4.21,9.98,4.42c0.36,0.16,0.54,0.23,0.82,0.71c0.2,0.51,4.07,9.22,4.36,9.84c0.32,0.57,0.28,0.83-0.01,1.49
			c-0.23,0.54-7.26,16.83-8.98,20.76c-1.8,3.97-9.66,21.67-9.81,22.03c-0.27,0.45-0.35,0.48-0.92,0.31
			c-0.56-0.17-8.04-3.36-8.75-3.67c-0.74-0.25-0.93-0.62-1.34-1.15c-0.38-0.59-4.64-6.28-5.19-7.29c-0.43-0.97-0.41-0.53-0.59-0.12
			c-0.21,0.48-1.59,3.49-1.8,3.97c-0.26,0.6-0.32,0.57-0.8,0.36c-0.6-0.26-8.79-3.9-9.69-4.29c-0.81-0.42-0.99-0.65-1.32-1.21
			c-0.25-0.39-1.17-1.86-2.22-4.02c-1.02-2.22-1.26-3.46-1.59-4.17c-0.36-0.8-0.17-1.07,0.24-2.17
			C130.83,575.13,148.2,534.63,148.61,533.67z M154.92,546.21c-0.18,0.42-17.51,40.66-17.64,40.95c-0.04,0.27,0.02,0.44,0.32,0.57
			c0.36,0.16,6.72,2.64,6.96,2.75c0.18,0.08,0.3,0.13,0.53-0.41c0.26-0.6,9.25-21.21,9.56-21.93c0.34-0.78,0.53-1.54,0.62,0.2
			c0.03,1.72-0.22,11.25-0.18,14.74c0.06,3.43,0.12,11.61,0.13,11.9c-0.01,0.35-0.04,0.41,0.26,0.54c0.24,0.1,7.35,2.99,7.79,3.11
			s0.4-0.11,0.48-0.29c0.07-0.32,7.66-17.58,9.98-22.74s7.6-17.6,7.73-17.9c0.16-0.36,0.27-0.45-0.03-0.58s-6.79-2.82-7.19-2.85
			c-0.42-0.18-0.48-0.35-0.76,0.45c-0.34,0.78-9.82,23.02-10.21,23.91c-0.42,0.95-0.43,0.17-0.37-0.3
			c-0.08-0.46,0.02-28.35,0.02-28.85c-0.06-0.52,0-0.64-0.36-0.8s-6.72-2.64-7.08-2.8C155.19,545.76,155.1,545.79,154.92,546.21z"/>
		<path d="M95.65,504.97c1.55-2.01,6.16-3.96,10.21-2.4c3.02,1.09,8.18,5.14,10.4,8.66c2.27,3.55,3.6,9.5,4.08,12.4
			c0.29,2.93,0.2,6.88-0.45,10.07c-0.7,3.15-3.05,6.1-4.87,8.47c-1.81,2.46-17.57,23.06-17.77,23.32c-0.24,0.31-0.27,0.45-0.68,0.14
			c-0.56-0.34-7.44-5.47-7.95-5.87c-0.46-0.36-0.54-0.58-0.63-0.89c-0.05-0.36-1.19-6.66-1.3-7.8c-0.16-0.86-0.04-1.01-0.4-0.55
			c-0.4,0.51-2.85,3.71-3.17,4.12c-0.4,0.52-0.57,0.63-1.13,0.2c-0.57-0.44-7.36-5.58-7.72-5.85c-0.36-0.28-0.64-0.66-0.83-1.38
			c0-0.74-1.73-10.76-1.75-11.27c-0.01-0.42-0.06-0.46,0.38-1.02C72.42,534.75,93.79,507.39,95.65,504.97z M93.59,525.03
			c-3,4.01-17.39,23.04-17.63,23.35c-0.23,0.4-0.27,0.45-0.01,0.65c0.35,0.19,5.5,4.15,6,4.46c0.46,0.36,0.53,0.16,0.69-0.04
			c0.2-0.26,17.54-22.92,18.78-24.42s3.67-4.56,6.96-2.11c3.38,2.43,2.54,5.23,0.75,7.55c-1.77,2.41-18.62,24.63-18.78,24.84
			c-0.2,0.26-0.33,0.32-0.07,0.52c0.16,0.12,5.77,4.44,6.08,4.68c0.35,0.19,0.47,0.03,0.75-0.33c0.2-0.26,17.76-23.74,18.43-24.61
			c0.67-0.88,3.67-4.88,3.09-10.09c-0.46-5.27-3.24-7.74-4.58-8.77s-5.65-3.85-10.51-2.75C98.73,518.98,96.54,520.98,93.59,525.03z"
			/>
		<path d="M62.48,479.38c1.74-1.66,6.4-5.72,10.26-5.9c3.87-0.27,5.94,1.35,7.29,2.48c1.17,1.04,5.11,5.28,6.31,6.92
			c1.25,1.59,2.63,5.12,2.99,8.99c0.28,3.69,0.35,8.1-0.3,12.13c-0.7,4.17-2.39,7.21-3.81,8.83c-1.37,1.57-3.59,3.86-3.83,4.09
			c-0.28,0.27-0.37,0.08-0.59-0.15c-0.22-0.24-4.39-4.52-5.02-5.18c-0.67-0.71-0.37-0.1-0.33,0.22c-0.01,0.28,0.07,1.01-0.01,2.35
			c-0.04,1.38-0.1,2.16-0.62,4.72c-0.43,2.56-1.4,4.38-2.83,6.46c-1.34,1.99-2.99,3.83-5.7,5.33c-2.71,1.5-5.1,1.62-7.44,1.61
			c-2.48,0.03-4.44-0.71-6.93-2.38c-2.44-1.53-4.09-3.92-5.18-6.02c-1.28-2.1-1.45-4.63-1.79-7.26c-0.39-2.68-0.37-3.78-0.38-6.81
			c-0.11-3.04,0.27-6.98,0.71-9.82c0.39-2.79,1.83-5.24,2.69-6.32c1-1.4,2.6-2.74,3.07-3.19c0.42-0.4,0.89-0.48,1.2-0.34
			c0.41,0.15,1.75,1.56,2.38,2.22c0.67,0.71,2.68,3.01,2.82,3.15c0.09,0.19,0.13,0.14,0.09-0.09c0.01-0.28,0.09-1.61,0.49-4.86
			c0.4-3.16,1.02-5.72,1.42-7C59.83,482.35,60.79,480.99,62.48,479.38z M60.31,500.02c-0.53,2.84-0.73,7.06,1.97,11.13
			c2.61,3.97,3.17,5.6,2.43,7.74c-0.74,2.14-3.08,3.46-4.91,3.33c-1.79-0.09-4.29-1.49-4.81-4.3c-0.62-2.73,2.22-5.88,2.36-6.01
			c0.19-0.18,0.24-0.22-0.08-0.55c-0.36-0.38-4.61-5.22-4.83-5.46c-0.22-0.24-0.27-0.38-0.6-0.06c-0.33,0.31-1.88,1.61-3.27,3.74
			c-1.29,2.13-2.65,4.67-2.28,8.45c0.32,3.82,1.76,6.67,4.27,9.3c2.46,2.59,6.66,3.8,9.52,3.69c2.86-0.21,6-0.86,8.31-3.15
			c2.27-2.33,4.56-5.68,4.88-9.21c0.41-3.53-0.58-5.99-1.64-7.86s-2.75-4.12-3.08-5.5c-0.33-1.48-0.74-3.42,1.38-5.53
			c2.08-2.16,5.2-1.99,7.21,0.41c2.01,2.3,1.67,4.78,0.81,6.23c-0.82,1.41-1.86,2.48-2.09,2.71c-0.19,0.18-0.1,0.27,0.12,0.51
			s4.93,5.09,5.15,5.32c0.27,0.28,0.32,0.24,0.46,0.1c0.24-0.22,2.32-2.47,3.52-4.69c0.98-2.27,2.19-4.96,1.56-9.11
			c-0.72-4.16-2.42-6.13-4.31-7.92c-1.8-1.7-4.87-3.89-9.66-3.55c-4.7,0.34-6.87,2.4-8.65,4.01
			C62.26,495.38,60.93,497.37,60.31,500.02z"/>
		<path d="M51.59,458.46c0.26-0.19,9.03-6.59,9.24-6.75c0.16-0.12,0.46-0.26,0.65,0c0.28,0.28,5.85,7.8,5.96,7.96
			c0.15,0.21,0.23,0.31,0.18,0.68c-0.09,0.31-1.08,12.76-1.19,13.16c0.02,0.47-0.03,0.51-0.34,0.74c-0.37,0.27-8.22,6.16-8.64,6.47
			c-0.31,0.23-0.5,0.2-0.73-0.11c-0.15-0.21-1.35-1.83-1.51-2.04c-0.25-0.22-0.22-0.08-0.53,0.15
			c-0.22,0.24-25.85,23.31-26.14,23.69c-0.28,0.28-0.53,0.15-0.82-0.12c-0.25-0.22-5.82-7.66-5.98-7.87
			c-0.18-0.35-0.26-0.46-0.25-0.78c0.09-0.31,0.79-12.38,0.75-12.76c0.09-0.31,0.15-0.35,0.42-0.63c0.31-0.23,10.27-7.75,10.9-8.22
			s1.11-0.9,1.88-1.39c0.46-0.26,4.35-2.32,8.03-4.56c3.42-2.04,6.52-4.09,6.73-4.24c0.51-0.29,0.57-0.43,0.58-0.75
			c0.03-0.18,0.34-1.62,0.39-1.99S51.33,458.65,51.59,458.46z M53.93,477.26c0.26-0.19,0.22-0.25,0.11-0.4s-0.81-1.1-0.98-1.22
			c-0.15-0.21-0.3-0.18-0.51-0.03c-0.39,0.13-28.15,18.46-28.45,18.6c-0.31,0.23-0.2,0.39-0.12,0.49c0.12,0.16,3.86,5.23,4.02,5.44
			c0.19,0.26,0.18,0.35,0.51,0.03C28.73,499.93,53.74,477.56,53.93,477.26z M59.49,466.85c-0.26,0.19-6.52,5.06-6.84,5.3
			c-0.21,0.15-0.4,0.22-0.07,0.45c0.28,0.27,1.2,1.62,2.37,3.1c1.04,1.41,2.02,2.63,2.12,2.88c0.1,0.25,0.16,0.21,0.26,0.13
			c0.21-0.15,7-5.18,7.16-5.29c0.21-0.15,0.26-0.19,0.15-0.35c-0.15-0.21-1.28-1.4-2.4-2.92s-2.19-3.07-2.3-3.23
			C59.83,466.76,59.7,466.7,59.49,466.85z"/>
	</g>
</g>
</svg>
