<svg version="1.1" id="karakoke" xmlns="http://www.w3.org/2000/svg" xmlns:xlink="http://www.w3.org/1999/xlink" x="0px" y="0px"
	 viewBox="0 0 444.18 444.18" style="enable-background:new 0 0 444.18 444.18;" xml:space="preserve">
<g>
	<path d="M400.35,294.48c-8.01-20.09-24.8-33.09-46.05-35.66c-34.47-4.17-72.55,19.05-104.45,63.71
		C178.3,422.7,110.16,429.49,90.98,429.17c-16.64-0.27-27.45-5.43-30.78-10.43c-8.77-13.15,9.51-36.94,20.98-48.97
		c8.25,6.06,18.18,9.33,28.61,9.33c12.96,0,25.13-5.05,34.29-14.21l106.46-106.46c2.79,0.3,5.6,0.47,8.44,0.47
		c20.7,0,40.16-8.06,54.8-22.7c14.64-14.64,22.7-34.1,22.7-54.8s-8.06-40.16-22.7-54.8c-30.22-30.22-79.39-30.21-109.6,0
		c-14.64,14.64-22.7,34.1-22.7,54.8c0,2.84,0.17,5.66,0.47,8.44L75.49,296.3c-9.16,9.16-14.21,21.34-14.21,34.29
		c0,10.41,3.26,20.32,9.3,28.56c-4.13,4.32-10.1,11.04-15.42,18.87c-16.74,24.65-13.29,40.27-7.46,49.03
		c6.93,10.39,23.01,16.79,43.02,17.11c0.54,0.01,1.09,0.01,1.65,0.01c17.1,0,43.82-4.22,76.7-23.5
		c33.21-19.46,64.49-49.55,92.96-89.42c28.19-39.47,62.01-60.98,90.44-57.54c15.64,1.89,28,11.49,33.92,26.33
		c10.44,26.18-0.12,62.09-28.24,96.07c-8.82,10.65-16.98,21.18-24.27,31.31c-2.42,3.36-1.66,8.05,1.7,10.47s8.05,1.66,10.47-1.7
		c7.1-9.86,15.05-20.12,23.65-30.51C401.41,367.41,412.85,325.84,400.35,294.48z M86.1,354.29c-6.33-6.33-9.81-14.74-9.81-23.69
		c0-6.39,1.79-12.51,5.11-17.79l46.18,46.18c-5.28,3.32-11.39,5.11-17.79,5.11C100.83,364.1,92.42,360.61,86.1,354.29z
		 M214.79,225.59c-11.8-11.81-18.31-27.5-18.31-44.19c0-3.4,0.28-6.75,0.81-10.04l71.73,71.73c-3.29,0.53-6.64,0.81-10.04,0.81
		C242.29,243.9,226.59,237.4,214.79,225.59z M214.79,137.2c12.18-12.18,28.19-18.28,44.19-18.28s32.01,6.09,44.19,18.28
		c11.81,11.81,18.31,27.5,18.31,44.19s-6.5,32.39-18.31,44.19c-5.28,5.28-11.33,9.48-17.9,12.53l-83.02-83.02
		C205.3,148.54,209.51,142.48,214.79,137.2z M204.18,236.2c8.34,8.34,18.24,14.53,29.05,18.33l-94.46,94.46L91.4,301.61l94.45-94.46
		C189.65,217.96,195.84,227.86,204.18,236.2z"/>
	<path d="M71.4,156.77c3.83,0,7.73-0.68,11.51-2.12c8.11-3.09,14.54-9.15,18.1-17.07s3.82-16.75,0.73-24.86L74.2,40.28l60.76-23.1
		l17.82,46.86c-5.88-1.24-12.16-0.87-18.18,1.42c-16.75,6.37-25.19,25.18-18.83,41.93c4.93,12.96,17.31,20.95,30.41,20.95
		c3.83,0,7.73-0.68,11.51-2.12c8.11-3.08,14.54-9.15,18.1-17.07s3.82-16.75,0.73-24.86L146.31,4.83c-0.71-1.86-2.12-3.36-3.94-4.18
		s-3.88-0.88-5.74-0.17L61.86,28.92c-3.87,1.47-5.82,5.8-4.35,9.68L78,92.47c-5.88-1.24-12.16-0.87-18.18,1.42
		c-16.75,6.37-25.19,25.18-18.83,41.93C45.92,148.78,58.3,156.77,71.4,156.77z M162.11,103c-1.91,4.26-5.38,7.53-9.74,9.19
		c-9.02,3.43-19.15-1.12-22.58-10.14c-3.43-9.02,1.12-19.15,10.14-22.58c2.04-0.78,4.14-1.14,6.2-1.14c7.06,0,13.72,4.3,16.38,11.28
		C164.16,93.99,164.02,98.74,162.11,103z M65.15,107.91c2.04-0.78,4.14-1.14,6.2-1.14c7.06,0,13.72,4.3,16.38,11.28
		c1.66,4.37,1.52,9.12-0.39,13.39c-1.92,4.26-5.38,7.53-9.75,9.19c-9.02,3.43-19.15-1.12-22.58-10.14
		C51.58,121.47,56.13,111.34,65.15,107.91z"/>
</g>
</svg>
